<?xml version="1.0" standalone="no"?>
<!DOCTYPE svg PUBLIC "-//W3C//DTD SVG 20010904//EN"
 "http://www.w3.org/TR/2001/REC-SVG-20010904/DTD/svg10.dtd">
<svg version="1.0" xmlns="http://www.w3.org/2000/svg"
 width="368.000000pt" height="280.000000pt" viewBox="0 0 368.000000 280.000000"
 preserveAspectRatio="xMidYMid meet">
<metadata>
Created by potrace 1.16, written by Peter Selinger 2001-2019
</metadata>
<g transform="translate(0.000000,280.000000) scale(0.100000,-0.100000)"
fill="#000000" stroke="none">
<path d="M1188 2389 c-9 -5 -31 -38 -48 -73 -26 -52 -30 -68 -21 -84 24 -45
14 -75 -34 -106 -37 -23 -48 -26 -60 -16 -17 14 -20 30 -4 30 5 0 7 -6 3 -12
-5 -8 -1 -7 10 2 10 8 22 23 27 35 6 11 16 31 24 45 22 38 18 78 -11 107 -22
22 -32 25 -70 20 -57 -6 -90 -36 -98 -89 -6 -39 -5 -43 40 -85 39 -37 42 -43
21 -38 -64 16 -88 -17 -118 -163 -14 -68 -27 -104 -43 -122 -54 -58 -56 -105
-5 -141 24 -17 27 -23 19 -45 -6 -14 -10 -54 -10 -89 0 -47 -4 -64 -15 -69
-27 -10 -16 -42 30 -84 41 -37 45 -45 45 -87 0 -26 7 -75 17 -109 11 -43 16
-99 15 -193 -1 -96 3 -143 14 -168 7 -19 14 -56 14 -82 0 -26 9 -115 20 -198
11 -82 20 -154 20 -159 0 -5 15 -6 33 -4 43 7 57 1 57 -27 0 -30 -22 -47 -57
-43 -22 2 -29 9 -31 30 l-3 28 -425 0 c-276 0 -424 -3 -424 -10 0 -7 147 -10
420 -10 231 0 419 -3 419 -7 -6 -37 32 -60 73 -44 21 8 30 23 46 78 12 37 23
79 25 93 2 14 5 5 5 -20 0 -25 -3 -54 -7 -65 -6 -14 0 -28 22 -52 31 -34 57
-40 101 -23 33 12 33 37 1 52 -22 10 -23 13 -10 20 10 6 15 25 15 61 1 29 7
113 14 188 12 126 8 231 -10 261 -3 5 -1 15 5 22 14 16 16 76 6 134 -6 38 -2
52 30 117 38 77 59 185 36 185 -7 0 -11 22 -10 63 1 34 3 51 6 37 15 -98 27
-138 42 -132 12 4 10 -1 -5 -20 -16 -20 -20 -39 -19 -93 1 -61 4 -70 29 -92
31 -26 29 -3 23 -363 -4 -247 25 -397 82 -419 50 -20 81 -24 81 -11 0 9 6 7
19 -4 23 -21 50 -18 65 7 9 15 6 22 -15 41 -23 20 -25 25 -13 41 9 12 14 45
14 86 0 47 7 86 26 135 19 52 27 98 34 198 9 133 27 269 38 296 4 8 9 -34 12
-95 5 -107 6 -110 28 -108 12 2 22 -1 22 -5 0 -5 -19 -39 -42 -77 -63 -105
-63 -137 2 -272 74 -153 91 -213 68 -240 -18 -22 5 -36 65 -37 57 0 107 22
107 49 0 13 99 15 785 15 517 0 785 3 785 10 0 7 -266 10 -779 10 l-778 0 -5
88 c-3 48 -1 118 4 157 13 94 -6 388 -28 441 -14 32 -15 60 -10 154 l7 115
-36 75 c-20 41 -40 96 -45 122 -5 27 -18 60 -29 76 -11 15 -29 66 -39 113 -22
102 -39 132 -91 158 -38 20 -51 46 -51 105 0 44 -32 127 -61 161 -31 34 -71
46 -84 25 -3 -5 -15 -10 -25 -10 -24 0 -57 -43 -70 -90 -8 -28 -7 -54 4 -98
13 -56 12 -112 -3 -112 -3 0 -6 23 -7 52 -1 51 -2 52 -79 123 -70 63 -77 73
-67 92 6 11 22 27 35 36 27 17 39 48 27 67 -4 7 -4 25 1 40 6 17 6 36 0 53
-18 46 -99 72 -143 46z m113 -25 c10 -9 19 -21 19 -27 0 -14 -81 1 -102 19
-17 16 -38 12 -38 -7 0 -6 4 -7 10 -4 5 3 20 0 32 -6 13 -7 37 -15 53 -19 26
-5 30 -10 27 -35 -8 -68 -68 -165 -102 -165 -46 0 -65 92 -35 175 18 49 18 48
3 39 -13 -9 -3 12 21 39 19 23 82 18 112 -9z m287 -205 c31 -32 62 -120 62
-177 0 -17 5 -43 11 -58 13 -37 2 -101 -23 -126 -11 -11 -21 -34 -23 -51 -1
-18 -6 -41 -11 -51 -8 -21 4 -17 40 13 18 15 19 15 13 -1 -8 -24 6 -23 27 1
25 27 30 88 13 139 -16 46 -8 54 31 26 31 -22 44 -49 62 -136 l17 -78 -33 0
c-21 0 -44 -10 -64 -27 -31 -26 -32 -28 -28 -101 3 -65 7 -77 30 -97 l26 -22
-56 -16 c-86 -23 -204 -47 -233 -47 -48 0 -62 20 -55 81 3 30 9 124 12 209 3
85 9 158 13 163 11 11 70 -37 112 -93 35 -47 39 -49 48 -31 14 25 14 34 1 26
-16 -10 -11 7 14 52 35 60 38 88 21 177 -8 44 -13 88 -9 98 11 34 -14 86 -48
97 -43 15 -43 16 -77 -31 -35 -48 -40 -91 -14 -128 22 -32 18 -66 -15 -110
l-25 -35 31 29 32 30 0 -38 c0 -20 7 -51 16 -69 l17 -32 -37 33 c-20 17 -41
32 -46 32 -18 0 -21 40 -4 71 15 29 15 41 4 100 -7 37 -10 84 -7 105 7 41 41
84 68 84 10 0 21 5 24 10 11 18 32 11 63 -21z m-26 -45 c30 -15 30 -17 26 -80
-4 -71 -14 -86 -54 -86 -33 0 -74 42 -74 76 0 21 53 106 66 106 3 0 19 -7 36
-16z m-551 -10 c13 -7 50 -194 47 -231 l-4 -38 -26 55 c-21 46 -24 65 -20 114
4 47 2 58 -9 54 -25 -8 -22 -82 5 -148 l24 -61 -25 -10 c-21 -8 -28 -5 -45 17
-27 33 -63 47 -89 34 -25 -14 -25 0 1 110 26 106 40 123 95 114 22 -3 43 -8
46 -10z m376 -114 c21 -26 14 -56 -23 -96 -20 -22 -51 -61 -70 -89 -57 -85
-66 -93 -109 -96 -30 -2 -49 3 -74 22 l-33 24 5 108 c2 59 1 124 -3 143 -10
44 9 46 43 3 l24 -31 -24 -76 c-13 -42 -22 -85 -21 -96 3 -13 10 1 22 39 39
130 77 172 146 162 22 -3 40 -3 40 -1 0 2 -9 18 -20 36 -11 18 -20 37 -20 41
0 9 97 -68 117 -93z m188 -90 c3 -19 12 -46 19 -59 12 -21 10 -31 -8 -72 -11
-27 -24 -49 -27 -49 -3 0 -18 22 -32 49 -21 37 -27 63 -27 107 l0 59 35 0 c31
0 35 -3 40 -35z m-197 -87 c-3 -54 -12 -92 -27 -121 -12 -24 -20 -46 -17 -49
6 -6 45 75 46 94 0 6 4 14 8 17 11 6 8 -202 -3 -301 -4 -42 -12 -70 -18 -66
-5 3 -13 0 -17 -7 -11 -17 -30 72 -33 146 -1 58 1 64 36 103 20 23 37 49 37
59 -1 15 -2 14 -12 -3 -6 -11 -21 -31 -34 -45 -12 -14 -28 -38 -34 -54 -9 -23
-13 -26 -25 -16 -21 17 -19 23 16 43 18 10 29 20 26 23 -3 3 -16 -1 -29 -10
-32 -23 -44 -20 -99 20 -53 39 -55 54 -7 54 17 0 39 7 49 16 15 14 19 12 47
-18 28 -29 32 -30 38 -14 5 14 0 26 -21 43 l-28 25 18 31 c22 39 75 107 82
107 3 0 3 -35 1 -77z m-494 -162 c3 -5 -1 -25 -9 -44 -9 -23 -11 -38 -5 -42 6
-3 10 -5 10 -3 1 15 29 79 30 66 0 -10 14 -22 35 -29 29 -11 35 -18 35 -41 0
-18 5 -28 15 -28 12 0 14 -7 9 -27 -4 -16 -8 -30 -10 -32 -2 -2 11 -29 27 -60
l30 -56 -45 -3 c-29 -2 -61 4 -88 16 -38 16 -44 24 -53 64 -6 24 -8 59 -4 77
5 25 2 38 -16 59 -23 28 -23 45 3 75 17 19 28 22 36 8z m394 -91 c16 -21 18
-34 11 -85 -4 -33 -8 -67 -8 -75 -1 -11 -22 -20 -68 -29 -135 -27 -119 -34
-127 56 -4 43 -5 85 -2 93 2 8 7 26 10 40 5 25 8 26 85 25 72 0 81 -2 99 -25z
m540 -35 c8 -18 16 -23 29 -18 17 6 17 5 1 -14 -22 -24 -23 -33 -2 -33 8 0 12
4 9 10 -3 6 1 7 10 4 14 -6 14 -8 -2 -19 -16 -12 -15 -15 10 -45 26 -30 27
-37 21 -91 -5 -43 -3 -59 6 -59 8 0 10 -9 5 -29 -8 -35 11 -144 32 -184 8 -16
12 -31 10 -33 -3 -3 -48 -17 -102 -31 -82 -22 -98 -24 -106 -12 -5 8 -8 82 -6
164 l2 150 48 3 c54 4 65 22 13 22 -56 0 -66 8 -66 50 0 35 3 40 34 50 19 6
40 18 48 27 11 15 11 16 -7 8 -67 -27 -103 -7 -112 62 l-5 38 59 3 c55 2 61 0
71 -23z m-778 -188 c51 0 114 7 157 19 40 10 75 15 78 12 7 -7 -3 -44 -39
-143 -23 -62 -26 -83 -24 -183 l1 -113 -44 -30 c-24 -16 -47 -29 -51 -29 -5 0
-8 69 -9 153 -1 163 -7 202 -29 202 -11 0 -14 -10 -12 -35 1 -19 5 -105 7
-190 2 -85 4 -162 4 -170 0 -8 -2 -33 -5 -56 -3 -22 -2 -56 4 -75 6 -25 5 -47
-5 -79 -9 -31 -12 -69 -7 -120 l6 -75 -45 0 -45 0 -12 90 c-6 50 -15 140 -19
201 -5 60 -14 121 -22 135 -10 17 -14 67 -15 169 0 99 -6 166 -17 210 -9 36
-17 82 -17 102 l0 37 38 -16 c24 -10 67 -16 122 -16z m670 -46 c8 -19 8 -35 2
-48 -5 -10 -12 -34 -16 -54 l-6 -36 -93 -6 c-94 -5 -181 3 -197 19 -6 6 -4 34
3 72 l12 62 90 1 c49 1 101 5 115 9 53 17 77 12 90 -19z m-141 -154 l123 3 -5
-28 c-6 -26 -17 -127 -36 -322 -6 -57 -18 -113 -30 -140 -15 -33 -21 -66 -21
-121 0 -80 -13 -107 -54 -106 -20 0 -20 1 4 427 13 224 13 241 0 254 -37 37
-78 -370 -56 -565 l8 -76 -28 -5 c-16 -3 -37 -8 -46 -12 -20 -9 -22 -1 -39
196 -8 89 -9 159 -3 200 5 35 8 118 7 186 l-3 122 28 -7 c15 -5 83 -7 151 -6z
m-30 -268 c-6 -118 -15 -250 -18 -294 l-7 -80 -9 60 c-13 85 -10 230 10 370
32 236 39 221 24 -56z m395 34 c-12 -85 -8 -199 10 -277 16 -68 19 -156 7
-211 l-6 -30 -23 23 c-20 20 -21 25 -9 43 13 17 11 28 -11 87 -22 58 -26 84
-26 189 -1 67 -4 124 -7 127 -3 4 -14 -12 -24 -34 -10 -23 -31 -50 -46 -61
-16 -11 -26 -25 -23 -32 3 -8 -5 -13 -22 -12 -15 0 -29 -6 -31 -12 -3 -9 6
-13 27 -13 27 0 36 -8 72 -65 23 -36 44 -63 46 -60 3 2 -13 33 -36 67 -45 71
-47 96 -10 136 14 15 30 35 35 45 7 13 9 -13 9 -85 -1 -127 5 -174 27 -216 22
-40 11 -65 -35 -81 -28 -10 -35 -9 -45 6 -7 9 -13 23 -13 30 0 7 -23 59 -52
116 -67 132 -70 177 -15 264 20 33 41 72 46 86 10 26 13 27 86 27 l76 0 -7
-57z m-701 -146 c-1 -78 -5 -185 -10 -237 -7 -85 -10 -95 -28 -96 -58 -2 -63
-4 -60 -21 1 -12 9 -17 21 -15 11 2 21 4 24 5 3 0 18 -3 33 -8 37 -10 30 -28
-16 -39 -32 -8 -38 -7 -56 15 -11 13 -18 30 -16 37 2 6 1 12 -4 12 -4 0 -4 24
1 53 5 28 6 127 3 219 l-7 167 49 35 c32 23 51 32 58 25 6 -6 9 -68 8 -152z"/>
</g>
</svg>
