<?xml version="1.0" standalone="no"?>
<!DOCTYPE svg PUBLIC "-//W3C//DTD SVG 20010904//EN"
 "http://www.w3.org/TR/2001/REC-SVG-20010904/DTD/svg10.dtd">
<svg version="1.0" xmlns="http://www.w3.org/2000/svg"
 width="1300.000000pt" height="1300.000000pt" viewBox="0 0 1300.000000 1300.000000"
 preserveAspectRatio="xMidYMid meet">

<g transform="translate(0.000000,1300.000000) scale(0.100000,-0.100000)"
fill="#000000" stroke="none">
<path d="M0 8216 l0 -4783 83 -5 c57 -3 92 -10 115 -23 31 -19 33 -19 63 -1
27 16 55 19 193 20 l161 1 3 -29 c3 -27 -4 -50 -31 -101 -6 -11 -14 -45 -18
-75 -4 -30 -10 -71 -14 -90 l-6 -35 20 24 c12 13 21 34 21 46 0 13 14 50 30
84 17 33 33 74 36 91 4 17 22 44 41 60 l34 30 220 -3 c219 -3 257 -9 224 -37
-18 -15 -19 -32 -3 -48 7 -7 13 -18 14 -25 3 -28 17 -56 32 -62 34 -13 199
-18 206 -6 4 6 18 11 32 11 19 0 25 5 22 18 -3 14 -18 18 -88 22 -47 3 -95 11
-107 18 -12 7 -31 12 -42 12 -25 0 -27 15 -4 29 17 9 17 10 0 29 -11 12 -14
22 -8 26 7 5 397 10 521 6 8 0 89 3 180 7 91 5 272 7 403 5 l238 -3 13 -32 c7
-19 11 -66 10 -117 -3 -91 -5 -112 -24 -205 -7 -33 -14 -107 -15 -165 -4 -115
-45 -426 -60 -450 -5 -8 -10 -49 -11 -90 -1 -41 -7 -95 -12 -120 -11 -47 -4
-177 8 -163 16 17 29 73 19 79 -6 3 -1 21 12 42 16 26 23 55 24 97 1 33 9 74
18 91 13 26 14 37 5 62 -12 32 -13 30 28 104 10 19 12 33 6 45 -9 17 -9 92 2
326 5 121 14 136 88 157 51 15 55 27 13 44 -20 9 -36 22 -36 33 -1 10 -2 32
-3 50 0 18 -7 38 -13 44 -18 18 -16 50 3 78 14 19 14 27 4 47 -17 30 -5 43 17
21 16 -16 18 -15 39 4 l22 21 1679 -2 c1994 -1 2539 -8 2537 -30 -1 -8 -14
-55 -28 -105 -69 -232 -72 -439 -10 -650 14 -50 26 -100 26 -112 0 -12 9 -30
19 -39 22 -20 25 -40 7 -48 -7 -3 -5 -4 6 -3 11 1 22 -7 27 -20 6 -18 5 -23
-7 -23 -8 0 -12 -5 -9 -10 4 -6 11 -8 16 -4 11 7 49 -29 49 -46 0 -19 -31 -10
-40 13 -5 12 -9 19 -9 14 -1 -11 -64 23 -74 39 -4 8 -14 14 -21 14 -8 0 -20 8
-27 17 -8 10 -9 14 -2 10 6 -4 14 -3 17 2 8 12 -21 41 -39 41 -22 0 -27 -17
-10 -33 16 -16 21 -47 7 -47 -4 0 -15 9 -25 20 -28 33 -77 23 -77 -15 0 -36
-16 -38 -40 -5 -26 37 -32 37 -75 4 l-34 -25 -30 22 c-32 23 -116 35 -127 18
-3 -5 0 -9 5 -9 25 0 9 -18 -19 -22 -29 -4 -31 -3 -25 24 5 21 3 28 -9 28 -9
0 -16 -7 -16 -16 0 -11 -6 -13 -19 -9 -22 7 -38 -12 -23 -27 7 -7 4 -21 -9
-44 -16 -30 -17 -35 -4 -40 41 -16 159 5 163 29 3 12 -3 17 -21 17 -34 0 -58
10 -51 21 3 5 21 9 39 9 28 0 33 3 28 18 -4 11 0 10 11 -5 10 -13 23 -23 29
-23 18 -1 97 -79 94 -93 -1 -6 9 -13 23 -15 19 -2 22 -1 10 7 -10 7 -12 13 -4
21 7 7 16 5 29 -10 10 -11 23 -20 29 -20 6 0 5 4 -3 9 -21 13 23 24 65 16 21
-3 34 -2 34 5 0 5 -9 10 -20 10 -11 0 -20 6 -20 14 0 18 57 12 108 -10 36 -17
36 -17 22 -45 -7 -13 -20 -19 -38 -17 -15 1 -33 -1 -39 -5 -6 -4 -13 2 -16 13
-4 15 -14 20 -37 20 -22 0 -31 -4 -27 -12 3 -10 -24 -13 -119 -13 -116 -1
-123 0 -126 20 -2 12 -12 21 -26 23 -17 3 -25 -4 -35 -26 -6 -16 -17 -27 -24
-25 -6 2 -25 -3 -42 -11 -16 -9 -48 -16 -70 -16 -22 0 -47 -3 -57 -7 -16 -6
-16 -7 2 -14 13 -5 6 -8 -23 -8 -29 -1 -43 -5 -43 -14 0 -8 -23 -19 -52 -27
-55 -14 -198 -16 -207 -2 -3 4 -19 15 -34 25 -32 21 -29 32 13 40 16 4 30 12
30 18 0 16 -106 5 -129 -13 -9 -8 -28 -20 -43 -28 -30 -14 -37 -30 -14 -30 20
0 61 -43 63 -67 3 -26 -14 -37 -72 -48 l-40 -8 45 -11 c29 -8 50 -9 58 -2 11
7 11 11 0 17 -19 12 -4 11 29 -2 15 -7 37 -12 48 -13 11 -1 21 -9 23 -19 3
-12 -5 -19 -26 -23 -23 -5 -30 -11 -27 -25 2 -12 -2 -19 -11 -19 -8 0 -17 -7
-20 -15 -4 -8 -12 -15 -20 -15 -8 0 -14 -7 -14 -15 0 -8 -9 -15 -20 -15 -22 0
-27 -15 -7 -23 14 -5 126 9 135 17 3 3 -9 9 -27 12 -49 10 -47 24 3 24 42 0
46 2 46 25 0 14 5 25 10 25 6 0 10 -7 10 -16 0 -8 5 -12 11 -8 7 4 10 -5 9
-27 -4 -73 -1 -87 23 -91 31 -6 47 1 47 20 0 13 2 14 8 4 5 -7 16 -10 25 -6 9
3 32 -3 51 -15 23 -15 37 -18 41 -11 8 13 8 13 -20 28 -16 9 -17 11 -3 12 28
0 47 -11 41 -26 -3 -8 0 -14 6 -14 6 0 11 8 11 17 0 13 3 14 12 5 9 -9 8 -15
-8 -28 -18 -15 -18 -15 11 -9 17 4 32 11 33 16 2 5 8 6 14 3 6 -4 5 -10 -3
-15 -25 -15 13 -41 52 -37 l34 4 -35 11 -35 11 48 1 c41 1 47 -2 47 -19 0 -22
20 -26 37 -9 9 9 19 9 42 -1 17 -7 40 -10 51 -7 11 3 20 0 20 -5 0 -7 5 -6 14
1 9 8 26 9 54 3 24 -6 46 -6 57 0 9 6 33 7 53 3 21 -3 59 -6 86 -5 26 0 54 -4
61 -10 11 -9 130 -26 210 -29 17 0 53 -3 80 -6 28 -3 84 -5 126 -5 55 0 80 -5
89 -15 7 -8 23 -15 36 -15 15 0 24 -6 24 -15 0 -8 -9 -15 -20 -15 -11 0 -20
-5 -20 -11 0 -8 17 -9 58 -4 57 8 76 9 122 6 14 -1 52 1 85 4 43 5 56 3 45 -4
-13 -9 -13 -11 3 -11 9 0 17 5 17 11 0 14 109 4 124 -11 5 -5 21 -6 37 -3 16
3 41 -2 60 -11 41 -21 46 -20 52 4 5 21 35 25 72 11 11 -5 27 -5 35 -1 25 13
112 0 106 -16 -3 -7 -1 -16 4 -19 5 -3 10 5 12 17 3 22 6 23 88 20 47 -2 97 1
111 7 18 6 30 6 37 -1 8 -8 15 -8 25 0 7 6 65 14 128 18 63 3 116 9 119 13 3
3 39 7 80 8 54 1 77 6 86 17 13 19 45 21 61 5 14 -14 33 -3 33 17 0 10 6 13
17 10 21 -6 96 17 87 27 -4 3 6 9 22 13 15 4 39 13 53 20 14 8 34 14 43 14 26
0 29 15 7 33 -28 25 -23 44 19 70 20 13 69 44 107 68 39 24 72 46 75 49 3 3
21 17 40 30 64 42 101 82 89 96 -6 8 -7 14 0 18 5 4 14 0 18 -9 7 -13 15 -9
43 20 19 19 31 35 27 35 -4 0 2 15 13 33 11 17 20 36 20 41 0 10 -50 -36 -50
-46 0 -4 -12 -19 -26 -33 -25 -25 -25 -25 -18 -3 3 13 15 35 26 51 11 15 18
34 16 43 -2 10 -12 2 -28 -26 -14 -22 -37 -55 -52 -73 -15 -18 -28 -35 -28
-39 0 -11 -31 -38 -43 -38 -7 0 -5 5 4 10 8 5 24 28 34 52 11 24 27 55 37 70
21 30 48 112 47 143 0 13 -8 5 -24 -25 -13 -25 -24 -50 -25 -57 0 -6 -23 -46
-50 -87 -28 -42 -50 -80 -50 -86 0 -5 -4 -10 -10 -10 -16 0 -12 15 15 66 14
26 25 52 25 59 0 6 9 30 20 53 16 33 19 49 11 75 -7 25 -9 27 -10 10 -1 -13
-5 -23 -11 -23 -5 0 -10 -7 -10 -16 0 -21 -85 -185 -110 -212 -11 -12 -20 -26
-20 -31 0 -10 -136 -151 -146 -151 -10 0 40 82 54 87 6 3 12 14 12 25 0 14 5
18 16 14 13 -5 15 -1 12 19 -3 14 1 30 8 36 8 6 14 22 14 34 0 12 11 42 24 66
22 41 41 141 51 263 2 27 7 62 10 77 4 17 2 29 -4 29 -5 0 -13 -17 -16 -37
-31 -187 -110 -412 -169 -483 -7 -8 -16 -23 -19 -32 -4 -10 -14 -18 -22 -18
-17 0 -15 5 15 50 18 26 71 221 90 327 13 77 16 335 3 357 -6 12 -10 -7 -11
-61 -2 -43 -4 -91 -6 -108 -23 -171 -65 -350 -96 -402 -11 -19 -20 -41 -20
-50 0 -15 -30 -62 -62 -97 -23 -26 -23 -19 4 35 12 24 21 48 20 53 -2 4 3 14
9 22 9 11 8 18 -1 29 -7 8 -8 15 -2 15 25 0 43 174 44 427 0 185 -17 481 -28
470 -2 -2 0 -65 4 -139 10 -160 -1 -381 -23 -493 -8 -44 -19 -107 -24 -140 -5
-33 -22 -87 -37 -120 -16 -33 -28 -65 -29 -71 0 -6 -9 -24 -20 -40 -11 -16
-22 -37 -25 -46 -3 -11 -10 -14 -17 -10 -10 7 -10 14 0 35 6 15 18 27 25 27 6
0 12 5 12 10 0 6 -4 10 -9 10 -10 0 -8 35 9 130 7 36 14 85 15 110 6 80 5 352
-1 419 -4 52 -3 63 6 51 10 -12 11 -12 5 5 -4 11 -9 43 -11 70 -17 209 -21
205 -21 -25 -1 -239 -16 -400 -50 -540 -19 -79 -43 -140 -55 -140 -4 0 -6 -11
-2 -25 5 -19 2 -25 -9 -25 -9 0 -20 -8 -26 -17 -6 -12 -8 30 -4 122 6 171 6
106 -6 470 -6 171 -15 366 -21 435 -5 69 -13 168 -16 220 -4 52 -10 124 -14
160 -8 62 -8 60 -5 -25 1 -49 9 -221 16 -382 10 -233 10 -322 1 -445 -15 -178
-31 -280 -45 -290 -7 -4 -7 -11 1 -21 7 -7 9 -17 6 -20 -4 -4 -9 -23 -11 -44
-5 -45 -42 -111 -44 -78 0 11 -3 40 -5 65 -2 25 0 57 5 72 6 17 6 30 1 33 -6
3 -10 16 -10 28 -1 12 -3 119 -5 237 -7 317 -23 805 -45 1330 -11 256 -21 506
-21 557 -1 51 -6 98 -11 105 -6 8 -7 -33 -4 -102 3 -63 8 -196 11 -295 3 -99
8 -227 12 -285 3 -58 7 -145 8 -195 1 -49 5 -256 10 -460 5 -265 4 -424 -4
-560 -15 -230 -17 -245 -26 -267 -4 -9 -4 -21 -1 -27 4 -5 2 -20 -3 -33 -5
-13 -12 -35 -15 -50 -12 -55 -26 -28 -22 43 3 64 1 71 -18 79 -12 5 -15 9 -8
9 15 1 16 33 1 48 -15 15 -18 1075 -5 1778 4 270 9 529 10 577 0 48 -2 84 -5
80 -4 -4 -12 -236 -18 -517 -23 -1030 -31 -1348 -35 -1354 -2 -3 -7 -89 -10
-190 -4 -102 -11 -192 -15 -200 -4 -9 -8 -49 -9 -90 -1 -51 -6 -79 -17 -90 -8
-10 -15 -25 -15 -34 0 -9 -4 -17 -9 -17 -14 0 -36 299 -35 470 1 148 13 482
24 625 5 72 16 236 25 365 8 129 24 348 35 485 10 138 24 329 30 425 6 96 15
219 21 273 10 90 14 99 35 107 30 12 31 30 3 30 -12 0 -23 8 -26 20 -8 31 -37
21 -46 -15 -3 -14 -5 -10 -6 12 -1 31 0 32 52 37 28 3 102 8 162 11 119 7 192
21 213 42 10 10 10 13 1 13 -7 0 -10 2 -7 5 7 8 61 -14 70 -28 4 -7 8 -29 8
-50 0 -56 28 -231 51 -327 47 -189 105 -306 394 -805 48 -82 114 -195 146
-251 76 -132 249 -485 249 -510 0 -10 4 -25 8 -31 9 -14 55 -15 1812 -25 602
-4 1168 -10 1258 -14 l162 -7 0 1262 0 1261 -27 -6 c-16 -4 -34 -11 -40 -17
-12 -9 -17 -3 -14 15 0 4 -8 10 -19 13 -13 4 -20 15 -20 31 0 22 -4 24 -52 26
-56 1 -61 1 -121 -9 -26 -4 -34 -9 -25 -14 8 -5 -13 -9 -53 -9 -37 0 -86 -7
-109 -15 -37 -13 -46 -13 -74 0 -17 8 -47 16 -66 18 l-35 4 33 13 c36 16 41
25 15 27 -10 1 -30 5 -45 9 -18 4 -28 2 -28 -5 0 -7 -25 -11 -71 -11 -63 0
-70 2 -59 15 7 9 11 17 9 18 -17 11 -59 27 -86 32 -26 5 -33 3 -33 -9 0 -12
10 -16 39 -16 29 0 40 -4 44 -19 3 -14 0 -18 -17 -15 -20 4 -20 4 -1 -5 11 -5
37 -10 58 -10 26 -1 37 -5 37 -16 0 -13 -19 -15 -127 -11 -71 2 -143 5 -160 5
-48 1 -40 19 10 24 l42 4 -42 1 c-55 2 -57 22 -3 22 22 0 57 7 78 16 34 14 36
16 17 27 -19 11 -19 11 5 19 18 5 13 7 -21 5 -45 -2 -78 15 -71 36 6 19 -34 0
-43 -20 -10 -24 -27 -28 -162 -39 -58 -4 -83 -3 -83 5 0 26 -140 1 -160 -28
-9 -14 -96 -51 -116 -50 -11 1 -7 4 11 9 17 4 -36 5 -117 3 -128 -3 -148 -2
-148 12 0 8 -5 15 -11 15 -7 0 -17 6 -23 14 -18 23 -52 28 -70 11 -21 -21
-159 -55 -168 -42 -4 7 -23 7 -59 -1 -60 -14 -79 -27 -79 -52 0 -21 -19 -30
-66 -30 -19 0 -34 -3 -34 -7 0 -5 -17 -19 -37 -33 -25 -17 -38 -21 -41 -12 -2
7 -21 12 -48 12 -39 0 -50 7 -41 26 1 3 -9 12 -23 19 l-25 13 30 7 c52 12 63
18 36 23 -38 6 -91 -7 -91 -23 0 -20 -20 -19 -49 1 -15 11 -26 13 -30 6 -12
-19 -152 -31 -193 -16 -24 8 -66 11 -119 8 -46 -2 -85 -1 -88 4 -3 5 -59 12
-123 16 -101 5 -118 4 -118 -9 0 -17 -31 -18 -120 -6 -39 6 -64 5 -85 -4 -18
-8 -23 -14 -13 -14 9 -1 20 -5 23 -11 4 -6 -11 -10 -37 -10 -39 1 -41 2 -25
14 18 14 18 16 2 40 -10 14 -21 26 -25 26 -21 0 7 44 44 70 23 15 48 35 55 43
20 25 131 32 184 12 36 -14 49 -15 67 -5 l22 12 -23 17 c-56 39 -22 59 109 65
232 11 290 24 230 54 -63 30 -114 24 -129 -15 -7 -20 -14 -24 -32 -19 -12 3
-32 6 -45 6 -14 0 -21 4 -17 11 14 22 -30 38 -105 39 -82 0 -109 12 -84 37 10
10 45 16 117 19 56 2 134 9 172 15 39 6 126 11 195 13 83 1 133 6 150 15 18
11 87 14 297 15 150 1 264 -2 255 -6 -13 -5 -14 -7 -2 -8 8 -1 31 -3 50 -6 19
-2 50 1 67 7 28 9 37 7 59 -10 24 -19 35 -21 105 -15 80 7 139 -6 139 -30 0
-13 -75 -46 -104 -46 -11 0 -28 7 -38 17 -17 15 -18 15 -18 -10 0 -16 6 -27
14 -27 8 0 17 -7 20 -16 5 -13 21 -15 99 -12 85 3 94 5 125 32 39 36 40 46 5
47 l-28 1 26 9 c16 6 51 6 90 1 l64 -9 -32 -13 c-18 -6 -31 -16 -28 -20 3 -5
46 -12 96 -16 70 -5 89 -10 85 -20 -3 -8 1 -14 9 -14 7 0 15 7 17 15 3 12 8
12 38 -2 19 -10 37 -21 40 -25 9 -12 80 14 80 29 0 17 61 17 103 -1 18 -7 76
-17 128 -20 90 -7 97 -6 139 18 49 28 70 32 87 15 18 -18 266 -25 310 -8 36
14 73 11 79 -6 4 -8 12 -15 20 -15 20 0 18 -46 -2 -54 -10 -4 -14 -12 -10 -23
4 -9 1 -20 -6 -24 -18 -11 -7 -18 28 -19 127 -1 164 1 164 11 0 6 -16 9 -37 7
-25 -2 -43 2 -51 12 -8 8 -11 9 -7 3 4 -8 0 -13 -10 -13 -9 0 -13 5 -10 10 3
6 2 10 -3 10 -21 0 1 40 22 41 11 0 38 2 59 5 21 3 37 0 37 -6 0 -5 15 -10 33
-10 24 0 28 -3 17 -10 -13 -8 -12 -10 3 -10 9 0 17 5 17 10 0 6 11 10 25 10
l25 0 0 2576 0 2576 -25 -4 c-14 -3 -33 1 -42 8 -21 15 -53 18 -53 5 0 -18
-29 -19 -49 -2 -32 28 -80 14 -100 -27 -27 -55 -91 -56 -91 -1 0 16 5 29 10
29 6 0 5 6 -2 14 -10 10 -17 11 -32 2 -14 -8 -20 -8 -23 1 -2 7 -14 24 -25 38
-16 20 -26 25 -42 19 -11 -3 -67 -10 -124 -13 -111 -7 -125 -14 -116 -61 9
-43 -24 -63 -88 -56 -76 9 -88 9 -135 1 -35 -6 -46 -4 -75 18 -24 19 -38 23
-48 17 -20 -13 -70 -13 -70 0 0 16 37 30 87 32 l48 1 -42 4 c-31 3 -43 9 -43
20 0 13 11 14 80 8 51 -4 80 -3 80 3 0 15 -125 22 -358 21 -200 -1 -242 2
-215 19 6 4 13 17 14 30 2 12 8 22 13 22 5 -1 13 5 18 14 7 13 21 15 71 10
l62 -6 -30 21 c-34 24 -52 26 -57 9 -3 -8 -51 -11 -161 -11 -120 0 -157 -3
-157 -13 0 -7 6 -15 13 -17 10 -4 10 -6 0 -6 -7 -1 -13 -8 -13 -16 0 -10 11
-15 33 -16 37 -1 92 -16 65 -18 -10 -1 -18 -8 -18 -16 0 -17 -69 -22 -86 -6
-5 5 -25 14 -44 19 -19 6 -27 11 -17 11 13 1 17 10 17 36 0 28 -4 35 -20 35
-10 0 -24 -9 -30 -20 -6 -12 -21 -20 -35 -20 -14 0 -35 -10 -46 -21 -21 -21
-28 -22 -193 -16 -94 3 -192 1 -216 -3 -35 -7 -49 -5 -62 7 -17 15 -16 33 3
33 5 0 9 -9 9 -20 0 -11 5 -20 10 -20 13 0 13 3 -2 35 -9 20 -18 25 -50 25
-39 0 -51 -13 -22 -24 27 -10 -3 -36 -43 -36 -44 0 -40 -15 15 -55 42 -31 54
-55 27 -55 -8 0 -15 4 -15 8 0 4 -34 3 -75 -2 -70 -9 -78 -8 -105 12 -29 22
-56 23 -122 7 -18 -5 -35 -1 -50 9 -25 18 -83 22 -73 6 3 -5 -1 -10 -9 -10 -9
0 -31 -9 -51 -20 -37 -21 -75 -26 -75 -11 0 5 -20 6 -46 3 -38 -4 -49 -1 -72
20 -54 51 -104 60 -209 39 -34 -7 -69 -7 -105 0 -114 20 -176 22 -210 6 -18
-8 -42 -17 -53 -19 -11 -2 -21 -13 -23 -25 -2 -13 -13 -24 -28 -27 -14 -4 -22
-11 -18 -17 3 -6 15 -9 25 -6 11 3 19 1 19 -5 0 -5 7 -17 17 -26 17 -18 86
-21 133 -8 38 12 181 9 228 -4 42 -11 54 -31 30 -47 -8 -5 23 -11 72 -15 130
-10 160 -17 160 -38 0 -13 11 -20 37 -25 21 -4 41 -11 44 -16 9 -16 39 2 45
27 4 15 16 25 37 30 17 3 39 11 47 17 12 7 26 5 48 -7 44 -23 41 -41 -10 -50
-44 -8 -135 -42 -145 -54 -10 -12 -27 -14 -85 -8 -84 7 -178 27 -178 38 0 3
-15 2 -32 -3 -51 -14 -86 -11 -108 11 -13 13 -33 20 -56 20 -27 0 -41 7 -56
25 -16 21 -25 25 -53 19 -18 -3 -49 -1 -69 4 -29 9 -43 7 -69 -6 -18 -9 -34
-20 -37 -24 -6 -7 -53 -11 -117 -9 -28 1 -43 6 -43 14 0 15 -71 11 -81 -5 -3
-5 -42 -9 -85 -9 -123 -1 -132 0 -146 14 -7 6 -20 14 -28 15 -8 2 -24 6 -35 9
-11 3 -37 8 -57 10 -21 3 -38 9 -38 14 0 5 -11 9 -24 9 -42 0 -96 28 -96 50 0
11 3 21 8 21 4 1 118 3 255 4 233 3 249 2 272 -17 34 -26 85 -17 85 16 0 33
-36 59 -68 49 -40 -13 -135 -4 -128 12 7 20 -28 25 -139 19 -108 -5 -195 2
-195 17 0 5 9 9 20 9 11 0 29 9 39 19 17 17 18 24 8 50 -13 34 2 61 34 61 11
0 36 16 57 35 41 36 128 79 143 69 5 -3 20 6 33 20 13 14 30 26 39 26 8 0 17
7 21 15 3 10 19 15 43 15 80 0 143 12 143 27 0 11 -5 13 -17 7 -10 -4 -49 -10
-86 -12 -59 -3 -72 -1 -88 17 -10 11 -19 32 -19 46 0 14 -4 25 -10 25 -5 0
-10 4 -10 8 0 4 16 9 35 10 21 2 35 -2 35 -9 0 -7 8 -9 23 -4 12 3 89 8 170
11 108 2 152 7 162 17 19 19 164 29 248 17 56 -8 75 -7 102 6 28 13 75 15 316
13 249 -3 288 -1 315 13 31 17 31 17 27 -6 -4 -20 0 -24 31 -30 22 -4 51 -2
70 5 29 10 41 10 79 -5 30 -11 73 -17 133 -16 312 2 304 2 386 -27 43 -15 78
-31 78 -35 0 -4 -10 -10 -22 -14 -16 -5 -18 -8 -7 -14 21 -11 129 -20 129 -10
0 5 8 10 18 13 14 3 13 6 -7 14 l-25 10 25 6 c29 7 85 -6 82 -19 -1 -5 14 -14
33 -20 19 -6 34 -8 34 -3 0 4 34 5 75 2 63 -5 75 -3 81 11 3 9 11 13 16 10 6
-4 5 -10 -3 -15 -10 -6 -7 -9 11 -9 14 0 45 -6 70 -14 45 -14 192 -8 218 8 17
10 15 36 -2 36 -8 0 -17 4 -20 8 -7 12 124 13 146 1 10 -6 16 -14 13 -20 -4
-5 3 -9 14 -9 12 0 21 -4 21 -8 0 -12 55 -17 185 -15 98 1 121 4 131 18 9 12
21 15 48 10 20 -4 36 -11 36 -16 0 -5 18 -9 40 -9 25 0 40 -5 40 -12 0 -14 95
-15 270 -3 47 3 104 5 128 5 l42 0 0 575 0 575 -26 0 c-15 0 -38 12 -56 30
-16 17 -36 30 -45 30 -8 0 -13 6 -11 12 3 7 -5 20 -16 29 -19 16 -19 17 15 32
19 9 50 18 69 20 19 2 -2882 4 -6447 5 l-6483 2 0 -4784z m12820 4634 c0 -5
-4 -10 -10 -10 -5 0 -10 5 -10 10 0 6 5 10 10 10 6 0 10 -4 10 -10z m-2895
-894 c10 -9 14 -20 10 -24 -11 -11 -165 -4 -180 8 -11 9 -12 15 -2 26 17 21
149 14 172 -10z m2419 13 c31 -14 40 -36 18 -41 -9 -2 -50 -2 -89 0 -54 3 -73
8 -73 18 0 30 95 45 144 23z m-2259 -38 c-6 -19 -9 -20 -55 -4 -10 3 -3 10 20
18 41 14 44 13 35 -14z m2378 -1 c9 0 17 -7 17 -15 0 -13 -4 -14 -20 -5 -12 6
-30 8 -40 5 -15 -5 -20 -2 -20 10 0 13 6 16 23 11 12 -3 30 -6 40 -6z m-4897
-55 c-8 -8 -22 -15 -30 -15 -9 0 -16 7 -16 15 0 10 10 15 31 15 27 0 29 -2 15
-15z m883 -9 c16 -19 4 -25 -36 -19 -34 5 -43 17 -20 26 23 10 45 7 56 -7z
m3488 -32 c-3 -3 -12 -4 -19 -1 -8 3 -5 6 6 6 11 1 17 -2 13 -5z m-3397 -28
c33 -7 49 -15 42 -20 -19 -12 5 -36 35 -36 15 0 39 -14 60 -35 40 -40 67 -44
84 -12 18 33 42 53 62 49 14 -3 17 -15 19 -63 0 -32 1 -64 2 -71 1 -7 -25 -18
-59 -25 -88 -19 -158 -43 -177 -60 -11 -10 -29 -14 -50 -10 -35 5 -66 -6 -85
-32 -9 -13 -7 -21 15 -43 l26 -28 -87 0 c-51 0 -87 -4 -87 -10 0 -6 -26 -10
-59 -10 -33 0 -63 -5 -67 -11 -4 -8 -9 -8 -17 0 -6 6 -33 11 -61 11 -41 0 -55
5 -78 27 -15 15 -28 33 -28 40 0 7 -7 13 -16 13 -12 0 -14 -4 -6 -12 11 -15
11 -74 0 -70 -5 1 -19 2 -33 2 -19 0 -25 5 -25 21 0 25 -26 48 -54 49 -11 0
-16 3 -13 7 4 3 -1 12 -10 19 -16 11 -13 13 22 23 59 15 254 19 263 4 10 -17
64 -19 162 -8 76 8 81 10 45 15 l-40 7 42 8 c50 9 48 25 -3 25 -19 0 -49 6
-68 14 -18 7 -43 14 -57 14 -13 0 -53 5 -89 11 -36 6 -103 11 -150 11 -118 0
-160 8 -160 30 0 26 37 30 310 29 236 -1 320 7 335 31 3 6 16 10 28 11 14 0 7
5 -18 13 -27 8 -44 21 -53 39 -24 49 -1 57 98 33z m-1117 -260 c9 -7 17 -18
17 -25 0 -6 17 -11 40 -11 28 0 40 -4 40 -14 0 -12 -6 -13 -31 -4 -24 8 -37 8
-50 -1 -25 -15 -35 -14 -59 6 -23 20 -25 34 -8 51 15 15 29 15 51 -2z m257
-66 c0 -5 -10 -10 -22 -9 -22 0 -22 1 -3 9 11 5 21 9 23 9 1 1 2 -3 2 -9z
m-53 -6 c-3 -3 -12 -4 -19 -1 -8 3 -5 6 6 6 11 1 17 -2 13 -5z m900 -70 c-3
-3 -12 -4 -19 -1 -8 3 -5 6 6 6 11 1 17 -2 13 -5z m2910 0 c-3 -3 -12 -4 -19
-1 -8 3 -5 6 6 6 11 1 17 -2 13 -5z m-3031 -46 c-10 -6 -20 -7 -24 -3 -9 8 20
25 31 18 5 -3 2 -10 -7 -15z m183 3 c11 -1 11 -4 1 -16 -7 -8 -16 -13 -20 -10
-5 3 -10 0 -12 -6 -3 -8 -10 -5 -22 6 -19 20 -7 36 23 30 9 -2 22 -4 30 -4z
m3191 -15 c0 -3 -4 -8 -10 -11 -5 -3 -10 -1 -10 4 0 6 5 11 10 11 6 0 10 -2
10 -4z m-967 -33 c-24 -9 -13 -20 27 -27 22 -3 40 -11 40 -16 0 -12 -16 -12
-99 -4 -56 6 -61 9 -61 30 0 22 4 24 53 23 28 0 46 -3 40 -6z m465 -24 c2 -5
21 -9 43 -9 32 0 39 -3 39 -20 0 -17 -7 -20 -39 -20 -22 0 -41 5 -43 11 -3 8
-16 10 -41 5 -27 -5 -37 -12 -37 -26 0 -11 -6 -17 -17 -16 -24 4 -28 23 -6 29
11 2 4 7 -19 11 -49 11 -48 23 2 31 22 4 40 11 40 16 0 12 74 0 78 -12z m1227
1 l30 -12 -30 -24 c-23 -19 -41 -24 -80 -23 -64 1 -105 12 -87 23 10 6 10 11
1 23 -10 12 -10 16 2 24 17 12 123 5 164 -11z m55 -20 c0 -5 -4 -10 -10 -10
-5 0 -10 5 -10 10 0 6 5 10 10 10 6 0 10 -4 10 -10z m-4379 -95 c24 -10 28
-14 14 -14 -32 -1 -65 11 -59 20 7 11 6 12 45 -6z m1594 5 c3 -5 1 -10 -4 -10
-6 0 -11 5 -11 10 0 6 2 10 4 10 3 0 8 -4 11 -10z m-1182 -17 c-7 -2 -19 -2
-25 0 -7 3 -2 5 12 5 14 0 19 -2 13 -5z m3092 -53 c-3 -5 -10 -10 -16 -10 -5
0 -9 5 -9 10 0 6 7 10 16 10 8 0 12 -4 9 -10z m-9909 -330 c17 10 33 10 68 1
25 -6 58 -11 75 -11 16 0 33 -4 36 -10 8 -13 42 -13 47 -1 2 5 41 10 88 10
181 1 173 2 159 -15 -32 -39 75 -54 140 -20 26 14 67 19 175 23 77 3 160 5
183 5 54 -1 153 -30 175 -51 31 -29 47 -41 55 -40 4 1 22 0 38 -1 l30 -2 -27
-10 c-16 -5 -28 -16 -28 -23 0 -7 -6 -15 -12 -17 -13 -5 -90 21 -98 33 -3 4
-33 12 -67 18 -56 11 -64 10 -97 -10 -28 -16 -35 -26 -31 -40 5 -14 1 -19 -14
-19 -12 0 -19 5 -16 13 6 15 -13 40 -43 56 -31 17 -55 7 -47 -19 6 -18 2 -20
-34 -20 -29 0 -47 7 -67 25 -34 32 -81 33 -120 3 -24 -19 -41 -23 -106 -23
-82 0 -93 -8 -58 -38 11 -9 20 -21 20 -27 0 -15 -74 -12 -106 5 -16 8 -45 15
-64 16 -19 1 -27 3 -17 6 25 7 21 18 -15 47 l-33 26 -18 -23 c-17 -22 -22 -23
-63 -14 -24 6 -44 16 -44 23 0 7 -17 16 -37 20 -21 4 -45 13 -53 20 -11 9 -47
13 -122 13 -58 -1 -115 4 -126 10 -12 6 -30 11 -41 11 -12 0 -21 7 -21 15 0 8
6 15 13 15 18 0 67 -24 67 -32 0 -5 18 -8 40 -8 22 0 40 4 40 9 0 6 18 21 41
34 35 21 46 23 77 15 25 -7 41 -6 58 2z m5114 -23 c8 0 48 3 89 6 57 5 79 2
98 -10 22 -15 23 -17 7 -34 -22 -25 -92 -34 -151 -19 -26 6 -70 11 -96 10 -37
-1 -54 4 -77 23 -16 14 -26 28 -22 31 3 4 36 4 72 0 36 -4 72 -7 80 -7z m-173
-3 c-3 -3 -12 -4 -19 -1 -8 3 -5 6 6 6 11 1 17 -2 13 -5z m-5300 -10 c-3 -3
-12 -4 -19 -1 -8 3 -5 6 6 6 11 1 17 -2 13 -5z m976 -157 c18 -8 38 -21 45
-30 19 -22 208 -45 214 -25 2 5 21 0 43 -11 22 -11 55 -25 73 -32 17 -6 32
-17 32 -24 0 -8 4 -15 8 -17 13 -5 24 -88 12 -88 -5 0 -10 6 -10 14 0 27 -30
46 -73 46 -60 0 -110 16 -136 44 -17 18 -46 29 -112 42 -49 10 -89 22 -89 26
0 4 -6 8 -13 8 -7 0 -26 14 -42 30 -28 29 -28 30 -7 30 13 0 37 -6 55 -13z
m-743 -99 c7 -18 15 -36 18 -40 2 -5 -10 -8 -27 -8 -17 0 -31 5 -31 10 0 6
-10 8 -22 5 -13 -4 -31 1 -43 10 l-20 15 20 15 c11 9 28 14 38 11 9 -2 17 0
17 5 0 23 37 6 50 -23z m1367 -39 c7 -7 22 -12 34 -13 24 -1 48 -30 36 -43 -5
-4 -38 -6 -75 -5 -69 3 -99 19 -89 46 5 13 16 17 73 25 5 0 15 -4 21 -10z
m223 -25 c0 -11 -6 -14 -16 -10 -9 3 -18 6 -20 6 -2 0 -4 9 -4 20 0 18 3 19
20 10 11 -6 20 -18 20 -26z m7460 -213 c30 -4 69 -4 85 0 79 17 308 3 378 -23
21 -8 42 -7 83 2 44 11 62 11 96 1 25 -8 88 -13 149 -12 113 2 245 -19 285
-45 17 -12 27 -13 43 -4 12 6 21 7 21 3 0 -4 5 -2 12 5 16 16 73 15 90 -1 22
-23 79 -28 168 -15 139 20 192 15 247 -22 39 -26 55 -30 84 -26 26 4 40 1 49
-9 7 -9 11 -17 8 -20 -2 -2 -85 -6 -184 -8 -114 -2 -187 -8 -202 -16 -13 -7
-36 -9 -57 -5 -18 3 -53 8 -77 11 -131 14 -158 14 -158 4 0 -6 -5 -11 -11 -11
-5 0 -7 5 -4 10 4 7 -21 10 -74 9 -45 -2 -81 -5 -81 -9 0 -16 94 -33 200 -36
144 -5 230 -14 230 -25 0 -5 6 -9 14 -9 8 0 18 -5 22 -12 9 -14 -23 -39 -41
-32 -7 3 -16 1 -20 -5 -3 -7 3 -11 15 -11 12 0 30 -5 41 -10 13 -8 35 -7 74 4
46 12 55 12 55 1 0 -12 5 -12 32 -1 36 16 174 12 221 -6 15 -6 27 -11 27 -13
0 -1 -5 -17 -11 -35 -9 -25 -9 -34 2 -40 22 -14 -7 -38 -54 -45 -23 -3 -55
-11 -70 -17 -26 -10 -27 -12 -12 -34 32 -49 -37 -98 -74 -53 l-19 24 -24 -22
c-29 -27 -75 -30 -95 -5 -8 9 -12 11 -8 5 4 -9 -3 -13 -22 -13 -19 0 -24 3
-15 9 22 14 -5 19 -74 13 -58 -4 -62 -6 -77 -38 -26 -54 -82 -55 -192 -4 -32
15 -48 17 -80 10 -22 -5 -60 -10 -84 -10 -25 0 -71 -7 -104 -17 -49 -14 -69
-14 -121 -5 -55 10 -88 12 -198 13 -18 0 -61 -3 -96 -7 -56 -6 -67 -4 -92 15
-16 11 -42 21 -58 21 -24 0 -32 -7 -46 -39 -16 -34 -49 -61 -76 -61 -5 0 -12
10 -15 23 -26 89 -44 100 -167 102 -189 4 -334 7 -363 6 -43 -1 -122 19 -135
34 -12 14 -2 18 92 30 26 3 50 9 52 13 2 4 40 5 83 1 44 -4 89 -2 103 3 23 9
97 17 145 16 73 -2 125 6 134 20 3 4 15 12 25 16 42 15 -6 26 -169 36 -94 7
-193 12 -221 13 -45 2 -55 7 -88 40 -20 21 -41 35 -46 32 -6 -3 -10 3 -10 14
0 16 7 21 28 21 45 1 6 16 -73 29 -63 10 -201 9 -212 -2 -2 -3 7 -17 21 -32
27 -29 31 -42 18 -62 -12 -19 -148 -12 -168 9 -15 14 -15 18 1 42 17 25 16 26
-9 37 -30 14 -31 15 -11 63 8 20 14 36 13 36 -2 0 -50 2 -108 4 -60 2 -116 9
-129 16 -14 7 -43 10 -70 8 -40 -4 -43 -4 -18 6 15 5 25 16 23 22 -3 7 3 16
12 20 14 6 250 21 432 26 295 10 453 20 495 32 48 13 88 13 215 -3z m-1273
-83 c16 -13 7 -28 -17 -28 -27 0 -110 -37 -110 -50 0 -5 10 -10 23 -10 13 0
45 -7 72 -16 40 -14 54 -15 82 -5 18 7 55 11 81 10 26 -1 54 0 62 3 63 25 80
26 110 12 33 -17 41 -57 14 -72 -14 -8 -14 -10 0 -21 9 -8 16 -28 16 -46 0
-29 -4 -34 -30 -40 -42 -9 -131 32 -128 60 3 17 -3 20 -32 21 -19 1 -56 11
-83 23 -44 20 -50 21 -80 7 -57 -27 -196 -21 -241 9 -17 13 -16 15 15 31 19
10 37 17 42 16 19 -5 4 15 -24 30 -62 36 -23 65 101 77 72 7 109 3 127 -11z
m-369 -122 c3 -11 0 -16 -7 -12 -6 4 -11 3 -11 -3 0 -5 -10 -13 -22 -17 -35
-11 -291 -12 -312 -2 -13 7 -16 7 -11 -1 5 -9 -19 -11 -87 -9 -75 2 -93 6 -93
18 0 10 9 14 25 13 119 -8 146 -6 168 15 7 6 19 12 25 12 7 0 6 -4 -3 -10 -8
-5 -10 -10 -5 -10 6 -1 24 -3 41 -4 17 -2 48 4 68 14 27 12 62 17 129 16 81
-1 92 -3 95 -20z m-654 -32 c28 -11 6 -24 -40 -24 -32 0 -44 4 -44 15 0 16 52
21 84 9z m3786 -19 c0 -2 -9 -9 -20 -15 -16 -9 -20 -8 -20 5 0 8 9 15 20 15
11 0 20 -2 20 -5z m-2007 -24 c26 -6 27 -7 12 -28 -18 -26 -43 -29 -70 -9 -17
12 -16 14 11 21 l29 8 -25 7 c-19 6 -20 8 -5 8 11 0 32 -3 48 -7z m2526 -65
c18 -21 -14 -66 -45 -66 -13 0 -24 4 -24 9 0 5 -11 12 -24 15 -19 5 -22 11
-18 31 4 23 9 25 52 25 29 0 52 -6 59 -14z m-9955 -102 c67 -10 59 -30 -16
-39 -89 -10 -193 -15 -148 -6 32 6 33 8 13 15 -69 23 40 45 151 30z m7164 -36
c-6 -18 -28 -21 -28 -4 0 9 7 16 16 16 9 0 14 -5 12 -12z m-4933 -48 c-3 -5
-15 -10 -25 -10 -10 0 -22 5 -25 10 -4 6 7 10 25 10 18 0 29 -4 25 -10z m7599
4 c18 -7 12 -24 -10 -24 -8 0 -14 7 -14 15 0 17 2 18 24 9z m-9436 -112 c2 -7
-3 -12 -12 -12 -9 0 -16 7 -16 16 0 17 22 14 28 -4z m5988 -156 c8 -8 14 -21
13 -28 0 -10 -2 -10 -6 0 -2 6 -9 10 -14 6 -5 -3 -8 0 -7 8 5 21 -33 9 -54
-18 -19 -23 -38 -32 -38 -16 0 4 10 20 22 35 24 30 61 35 84 13z m-446 -26 c0
-5 -7 -10 -16 -10 -8 0 -12 5 -9 10 3 6 10 10 16 10 5 0 9 -4 9 -10z m350 -70
c0 -5 -7 -7 -15 -4 -8 4 -12 10 -9 15 6 11 24 2 24 -11z m-881 -69 c-17 -13
-23 -29 -23 -57 0 -21 5 -39 12 -42 22 -7 14 -39 -10 -38 -14 1 -24 -6 -26
-18 -3 -14 0 -17 12 -13 13 5 15 2 10 -17 -6 -27 22 -210 37 -238 7 -13 17
-16 34 -12 19 5 24 2 22 -14 -1 -13 -8 -19 -22 -19 -46 1 -62 -16 -64 -68 -1
-16 1 -17 8 -6 7 10 8 0 5 -30 -3 -32 -1 -37 4 -19 7 19 8 10 8 -33 0 -69 -7
-54 -35 79 -27 132 -45 333 -37 412 10 97 37 151 75 152 8 0 4 -8 -10 -19z
m106 -31 c12 -19 -12 -10 -31 11 -19 22 -19 22 3 10 12 -6 25 -16 28 -21z
m1220 -2 c48 -13 64 -35 18 -24 -16 4 -48 9 -71 13 -29 4 -39 9 -30 14 18 12
30 11 83 -3z m241 -64 c18 -15 18 -15 -6 -9 -14 4 -35 6 -47 6 -13 0 -23 4
-23 9 0 16 54 12 76 -6z m-1310 -199 c4 -20 3 -27 -3 -20 -6 6 -14 24 -17 40
-5 20 -4 27 3 20 5 -5 13 -23 17 -40z m998 29 c12 -5 16 -19 14 -58 -1 -51 -2
-51 -5 -8 -3 25 -10 45 -19 49 -8 3 -14 9 -14 14 0 11 3 11 24 3z m437 -61
c-9 -15 -10 -12 -10 17 0 29 1 32 10 18 7 -12 7 -24 0 -35z m-2437 22 c-6 -16
-24 -21 -24 -7 0 11 11 22 21 22 5 0 6 -7 3 -15z m-153 -49 c12 -19 28 -32 33
-30 35 12 69 -71 42 -99 -10 -9 -15 -31 -14 -54 l1 -38 4 38 c5 41 33 54 33
15 0 -13 3 -34 5 -48 3 -14 3 -19 -1 -12 -8 17 -24 15 -24 -4 0 -19 -35 -10
-60 14 -14 14 -13 15 3 9 11 -4 17 -2 17 8 0 9 -8 12 -27 9 -23 -4 -25 -3 -13
11 7 8 19 15 28 15 8 0 -5 10 -29 23 -29 15 -45 31 -47 46 -2 15 -9 21 -18 17
-9 -3 -16 3 -20 19 -7 27 3 48 18 39 14 -9 -1 39 -16 48 -6 4 5 8 25 8 30 0
40 -6 60 -34z m1129 -11 c6 -19 10 -41 7 -48 -2 -6 -8 2 -11 18 -4 17 -12 40
-17 53 -6 14 -6 21 0 17 5 -3 15 -21 21 -40z m1615 9 c17 -7 24 -14 18 -15
-17 -2 -22 -3 -57 -12 -19 -5 -32 -4 -36 3 -4 7 -19 13 -33 13 -28 2 -26 14 7
27 23 9 54 4 101 -16z m-2035 -4 c0 -5 -4 -10 -10 -10 -5 0 -10 5 -10 10 0 6
5 10 10 10 6 0 10 -4 10 -10z m81 -102 c47 -94 51 -117 6 -33 -18 33 -43 78
-57 100 -18 30 -20 36 -6 26 10 -8 35 -50 57 -93z m322 42 c-7 -8 -23 24 -22
45 0 15 3 13 13 -10 7 -16 11 -32 9 -35z m-883 34 c0 -2 -7 -4 -15 -4 -8 0
-15 4 -15 10 0 5 7 7 15 4 8 -4 15 -8 15 -10z m2670 0 c42 -28 64 -64 40 -64
-5 0 -10 9 -10 19 0 12 -15 26 -42 39 -24 12 -36 21 -28 22 9 0 27 -7 40 -16z
m-2610 -4 c0 -5 -4 -10 -9 -10 -6 0 -13 5 -16 10 -3 6 1 10 9 10 9 0 16 -4 16
-10z m409 -23 c0 -21 -1 -21 -9 -2 -12 28 -12 37 0 30 6 -3 10 -16 9 -28z
m474 -65 c25 -48 49 -163 28 -132 -6 8 -11 22 -11 30 0 26 -44 110 -57 110
-16 0 -17 12 -1 28 7 7 13 12 14 12 1 0 13 -22 27 -48z m182 -9 c-16 -39 -26
-112 -24 -181 1 -40 -1 -75 -4 -78 -3 -3 -3 -12 0 -20 3 -8 1 -14 -5 -14 -15
0 -20 58 -11 135 11 99 29 175 41 175 6 0 7 -7 3 -17z m35 -11 c0 -15 -2 -15
-10 -2 -13 20 -13 33 0 25 6 -3 10 -14 10 -23z m-865 -34 c33 -41 50 -60 67
-75 36 -32 82 -93 59 -79 -8 6 -8 1 1 -18 6 -14 19 -26 30 -26 10 0 18 -6 19
-12 0 -10 2 -10 6 0 8 20 30 -3 53 -56 23 -50 24 -62 10 -62 -5 0 -10 8 -10
18 0 9 -9 32 -20 50 -17 28 -23 32 -35 22 -8 -7 -15 -19 -15 -26 0 -19 -6 -18
-32 8 -24 23 -108 146 -108 157 0 3 -14 22 -31 41 -17 19 -28 29 -24 21 6 -11
2 -12 -19 -7 -32 8 -34 -5 -5 -46 39 -54 35 -157 -4 -116 -27 28 -68 130 -61
151 9 30 33 46 67 47 29 0 34 9 15 28 -8 8 -9 12 -1 12 6 0 23 -15 38 -32z
m453 -6 c4 -25 -13 -30 -22 -6 -9 25 -7 36 7 32 6 -3 13 -14 15 -26z m1949
-54 c24 -22 31 -62 13 -73 -18 -11 -11 -33 8 -28 18 4 114 -36 142 -60 24 -20
67 -73 48 -58 -13 10 -21 10 -35 1 -16 -10 -16 -11 0 -6 11 3 17 0 17 -9 0 -8
6 -16 13 -16 6 -1 18 -2 26 -3 8 0 21 -13 30 -27 9 -15 31 -52 49 -82 18 -31
38 -57 44 -59 18 -6 -6 -40 -54 -74 -29 -21 -48 -29 -58 -23 -8 4 -27 10 -41
13 -56 12 -5 73 74 88 25 5 52 -16 42 -32 -3 -6 1 -7 9 -4 9 3 16 8 16 11 0
11 -53 93 -60 93 -18 0 -20 -19 -3 -29 16 -9 16 -10 -4 -11 -12 0 -24 4 -27 9
-9 14 -48 0 -42 -14 5 -13 -42 -40 -52 -30 -4 3 -1 15 6 25 7 11 8 20 4 20
-13 0 -62 47 -62 60 0 6 -10 15 -22 20 l-23 9 22 0 c30 1 40 21 14 28 -12 3
-21 13 -21 24 0 12 -7 19 -20 19 -11 0 -20 7 -20 15 0 8 -4 15 -10 15 -5 0
-10 -12 -10 -27 0 -16 -5 -35 -10 -43 -7 -11 -10 -2 -10 32 l0 48 -40 6 c-22
4 -40 10 -40 13 0 8 56 5 86 -4 19 -6 21 -3 17 19 -3 15 -14 31 -24 37 -11 5
-19 19 -19 30 0 11 4 18 9 15 12 -8 34 21 26 34 -9 14 -25 13 -20 -2 4 -9 -7
-14 -31 -16 -31 -2 -35 0 -29 15 4 10 8 26 9 36 1 24 35 22 63 -5z m-2220 -20
c-3 -8 -6 -5 -6 6 -1 11 2 17 5 13 3 -3 4 -12 1 -19z m-587 -41 c0 -16 -2 -17
-15 -7 -12 10 -13 15 -4 20 8 6 8 9 0 14 -6 4 -11 13 -11 19 1 20 30 -25 30
-46z m880 -32 c11 4 23 -3 34 -20 12 -19 25 -25 51 -25 36 0 56 -17 35 -30 -7
-4 -30 -8 -51 -8 -29 -1 -39 4 -44 19 -4 11 -15 19 -29 19 -28 0 -46 36 -45
88 l1 37 15 -43 c12 -33 19 -42 33 -37z m-1383 40 c0 -8 -6 -15 -14 -15 -16 0
-17 -12 -1 -28 9 -9 9 -12 -3 -12 -21 0 -63 46 -54 59 10 17 72 14 72 -4z
m181 -40 c4 -4 -15 -5 -42 -1 -39 5 -53 2 -68 -11 -10 -9 -20 -14 -23 -11 -10
9 6 37 23 40 23 5 101 -7 110 -17z m572 -10 c0 -8 -2 -15 -4 -15 -2 0 -6 7
-10 15 -3 8 -1 15 4 15 6 0 10 -7 10 -15z m-145 -39 c22 -16 65 -59 95 -95 69
-81 200 -255 200 -264 0 -23 -34 0 -66 46 -21 28 -47 60 -58 70 -10 9 -16 17
-12 17 4 0 -2 10 -14 22 -11 12 -20 25 -20 28 0 4 -11 12 -24 19 -19 11 -58
70 -60 93 -1 3 -18 22 -38 42 -69 67 -58 36 23 -66 73 -92 100 -135 103 -163
2 -16 47 -88 73 -114 34 -35 31 -56 -4 -34 -38 24 -74 62 -72 76 4 30 -3 42
-11 22 -9 -19 -9 -19 -16 3 -3 12 -10 22 -15 22 -14 0 -11 28 4 33 9 4 9 6 -1
6 -30 2 -22 -34 27 -114 28 -46 51 -87 51 -90 0 -36 -245 402 -257 458 -5 27
-4 28 23 21 16 -4 47 -21 69 -38z m-419 18 c23 -9 46 -26 52 -37 6 -12 11 -16
11 -9 1 6 6 12 11 12 6 0 8 -11 4 -25 -4 -17 -2 -27 9 -30 14 -6 18 -44 4 -46
-26 -4 -67 13 -67 26 0 9 -4 13 -10 10 -5 -3 -10 1 -10 9 0 9 -6 16 -13 16 -8
0 -19 11 -27 24 -7 14 -26 30 -41 37 -70 28 4 41 77 13z m1571 -16 c-3 -7 -5
-2 -5 12 0 14 2 19 5 13 2 -7 2 -19 0 -25z m-847 8 c0 -3 -4 -8 -10 -11 -5 -3
-10 -1 -10 4 0 6 5 11 10 11 6 0 10 -2 10 -4z m-747 -123 c10 -13 14 -23 8
-23 -6 0 -11 3 -11 8 0 4 -15 23 -33 42 -18 19 -42 49 -52 65 -18 28 46 -38
88 -92z m1157 82 c0 -5 -5 -3 -10 5 -5 8 -10 20 -10 25 0 6 5 3 10 -5 5 -8 10
-19 10 -25z m1481 12 c-10 -9 -11 -8 -5 6 3 10 9 15 12 12 3 -3 0 -11 -7 -18z
m-1871 -2 c11 -13 10 -14 -4 -9 -9 3 -16 10 -16 15 0 13 6 11 20 -6z m-90 -16
c0 -6 -4 -7 -10 -4 -5 3 -10 11 -10 16 0 6 5 7 10 4 6 -3 10 -11 10 -16z m94
-13 c23 -6 27 -9 15 -17 -9 -6 -10 -9 -2 -9 14 0 73 -76 73 -93 0 -6 -23 15
-51 46 -53 59 -75 72 -64 36 10 -30 -14 -14 -26 18 -11 29 -3 48 14 35 7 -5
25 -12 41 -16z m-546 -93 c13 -13 31 -23 41 -23 10 0 35 -16 57 -36 37 -33 29
-39 -9 -6 -9 8 -19 13 -22 10 -8 -8 6 -38 15 -33 5 3 11 -3 15 -14 3 -10 15
-21 25 -24 22 -6 28 8 8 16 -9 4 -8 6 2 6 16 0 130 -101 130 -115 0 -5 16 -26
35 -46 19 -20 35 -42 35 -48 0 -6 4 -9 9 -6 7 4 31 -34 31 -49 0 -9 -36 9 -47
23 -9 11 -13 12 -13 3 0 -7 9 -24 20 -38 11 -15 18 -28 15 -31 -7 -8 -104 86
-96 94 3 4 1 4 -6 0 -9 -5 2 -25 33 -66 25 -33 49 -62 55 -65 5 -4 9 -12 9
-18 0 -7 -11 2 -25 18 -14 17 -36 41 -49 55 -32 35 -154 205 -191 265 -44 73
-69 103 -98 116 -14 6 -31 26 -38 43 -7 17 -21 37 -31 44 -10 7 -16 17 -13 22
3 5 22 -9 43 -32 20 -23 47 -52 60 -65z m2382 77 c-11 -16 -26 -33 -32 -36 -7
-4 1 9 16 29 34 44 46 50 16 7z m-1426 -21 c-3 -6 -2 -14 3 -18 11 -6 27 -61
18 -61 -9 0 -35 72 -29 81 3 5 7 9 10 9 3 0 2 -5 -2 -11z m223 -29 c1 -16 0
-19 -4 -7 -3 12 -11 17 -23 14 -13 -3 -17 0 -13 10 9 23 38 10 40 -17z m68 20
c3 -5 2 -10 -4 -10 -5 0 -13 5 -16 10 -3 6 -2 10 4 10 5 0 13 -4 16 -10z m83
-17 c2 -1 -6 -11 -18 -23 l-22 -22 7 21 c4 13 1 29 -7 38 -12 15 -11 15 12 2
14 -8 27 -15 28 -16z m-628 -2 c17 -33 11 -47 -10 -21 -11 14 -20 28 -20 33 0
14 20 7 30 -12z m249 -27 c12 -20 20 -38 18 -41 -5 -4 -47 60 -47 71 0 14 9 4
29 -30z m274 6 c-7 -28 -13 -25 -13 6 0 14 4 23 9 20 5 -3 7 -15 4 -26z m218
20 c12 -7 19 -21 18 -38 0 -27 -1 -27 -11 -4 -6 12 -19 22 -29 22 -12 0 -16 5
-13 15 7 18 9 18 35 5z m-1978 -9 c4 -1 7 -6 7 -12 0 -7 -9 -9 -22 -6 -14 4
-30 0 -42 -11 -11 -9 -16 -11 -12 -4 4 7 1 12 -8 12 -19 0 -21 16 -3 23 6 3
26 4 42 2 17 -2 33 -4 38 -4z m3397 -11 c-6 -11 -20 -20 -32 -20 -20 0 -21 1
-3 20 10 11 24 20 32 20 11 0 11 -4 3 -20z m-2325 -20 c8 -16 15 -37 15 -47
-1 -14 -4 -13 -14 7 -17 32 -29 70 -22 70 3 0 12 -13 21 -30z m287 -12 c12
-18 34 -43 48 -56 25 -22 24 -22 -27 3 -62 30 -60 30 -66 8 -3 -10 -5 3 -6 30
-1 57 17 63 51 15z m-1011 5 c13 -16 12 -17 -3 -4 -10 7 -18 15 -18 17 0 8 8
3 21 -13z m1228 -20 l13 -28 -25 23 c-21 20 -25 21 -30 8 -4 -9 -3 -23 0 -33
4 -11 3 -14 -5 -9 -13 8 -16 48 -5 59 15 15 41 5 52 -20z m211 -33 c0 -20 0
-20 -20 0 -11 11 -20 25 -20 30 0 7 6 7 20 0 11 -6 20 -20 20 -30z m-302 1
c-2 -12 9 -30 27 -46 25 -22 26 -25 6 -15 -18 9 -25 9 -31 0 -5 -8 -9 -4 -13
12 -10 36 -8 68 4 68 5 0 9 -9 7 -19z m162 -5 c0 -3 -4 -8 -10 -11 -5 -3 -10
-1 -10 4 0 6 5 11 10 11 6 0 10 -2 10 -4z m-550 -16 c0 -5 -2 -10 -4 -10 -3 0
-8 5 -11 10 -3 6 -1 10 4 10 6 0 11 -4 11 -10z m1225 0 c3 -5 1 -10 -4 -10 -6
0 -11 5 -11 10 0 6 2 10 4 10 3 0 8 -4 11 -10z m-1075 -10 c0 -5 -5 -10 -11
-10 -13 0 -8 -42 6 -52 6 -5 6 -8 -2 -8 -15 0 -19 7 -28 48 -6 28 -4 32 14 32
12 0 21 -4 21 -10z m-870 -39 c0 -5 -10 -7 -22 -4 -22 4 -22 3 2 -10 25 -16
45 -13 35 4 -8 12 -4 12 40 -7 20 -8 35 -18 32 -20 -3 -3 -14 -1 -25 5 -26 14
-45 14 -37 1 4 -7 -7 -9 -29 -6 -23 3 -34 1 -30 -5 3 -6 13 -8 21 -5 9 4 13 1
11 -6 -2 -6 -8 -13 -14 -15 -12 -3 -55 58 -48 69 7 11 64 10 64 -1z m817 -38
l0 -48 -13 30 c-17 40 -17 65 0 65 10 0 14 -13 13 -47z m-57 2 c10 -11 10 -19
2 -27 -6 -6 -8 -18 -5 -27 4 -14 3 -14 -6 -1 -6 8 -8 24 -4 35 5 17 4 18 -11
6 -17 -14 -19 -12 -10 13 8 20 18 20 34 1z m-710 -25 c13 -8 12 -10 -3 -10
-10 0 -16 -4 -12 -10 3 -6 15 -6 30 0 15 6 27 6 30 0 10 -16 28 -11 21 5 -7
19 4 19 32 -1 14 -10 21 -22 17 -31 -4 -13 -3 -14 10 -3 9 8 15 8 15 2 0 -6 8
-13 18 -16 18 -7 72 -77 72 -96 0 -10 -41 10 -140 70 -42 26 -120 56 -129 51
-10 -7 -18 25 -9 36 12 15 27 16 48 3z m-335 -16 c-22 -8 -48 -25 -57 -37 -12
-15 -18 -18 -18 -7 0 25 13 38 50 48 53 15 70 13 25 -4z m1380 -23 c5 -12 3
-12 -12 1 -10 8 -24 13 -30 11 -13 -5 -18 9 -7 20 8 8 42 -14 49 -32z m2110
15 c19 -8 56 -18 82 -22 77 -11 123 -34 154 -77 33 -46 39 -79 12 -71 -17 5
-17 5 0 -9 26 -22 4 -35 -88 -52 -81 -16 -101 -14 -66 5 12 6 21 15 21 20 0
14 -52 -11 -77 -37 -12 -13 -30 -23 -40 -22 -15 0 -15 2 4 11 26 12 38 48 16
48 -9 0 -11 -5 -7 -12 5 -9 2 -8 -9 1 -14 11 -15 16 -5 29 11 14 10 15 -7 8
-11 -4 -16 -4 -12 0 13 13 81 36 105 36 12 0 22 5 22 12 0 17 -70 18 -96 2
-20 -14 -22 -14 -17 4 7 27 -10 25 -22 -2 -6 -12 -35 -34 -65 -50 -79 -39 -84
-34 -12 12 34 22 62 44 62 48 0 5 -7 17 -15 28 -20 27 -19 31 18 39 l32 7 -41
10 c-33 7 -41 13 -37 26 6 23 44 26 88 8z m-1705 -6 c0 -5 -7 -10 -16 -10 -8
0 -12 5 -9 10 3 6 10 10 16 10 5 0 9 -4 9 -10z m-520 -33 c0 -4 -6 -2 -14 5
-8 7 -12 17 -9 22 5 8 23 -12 23 -27z m-282 -13 c0 -34 -1 -35 -19 -18 -26 24
-26 1 2 -55 29 -61 16 -63 -15 -2 -31 61 -33 81 -6 88 11 3 20 9 20 14 0 5 4
9 9 9 5 0 9 -16 9 -36z m456 27 c3 -5 -1 -12 -10 -15 -20 -8 -29 -1 -19 13 8
13 22 14 29 2z m-1264 -11 c0 -5 -8 -10 -18 -10 -10 0 -28 -7 -40 -16 -24 -17
-39 -13 -27 6 14 23 85 40 85 20z m51 -29 c-26 -17 10 -38 62 -37 50 1 58 8
30 25 -10 6 -12 11 -6 11 7 0 27 -9 45 -20 18 -11 27 -20 21 -20 -7 0 -13 -5
-13 -11 0 -5 4 -8 9 -5 14 9 32 -20 27 -45 -3 -13 -5 -28 -5 -33 -1 -4 -14 -6
-31 -4 -26 4 -30 1 -30 -19 0 -27 -34 -32 -66 -8 -25 19 -40 19 -24 0 7 -8 8
-15 4 -15 -26 0 -164 113 -164 133 0 5 9 -2 20 -15 20 -26 84 -45 77 -24 -4
11 -7 12 -42 15 -20 1 -19 21 1 21 14 0 13 2 -1 17 -16 16 -16 17 5 25 12 5
30 3 42 -3 18 -9 19 -8 13 10 -10 31 4 46 24 27 13 -14 14 -18 2 -25z m1663
15 c-3 -9 -10 -13 -15 -10 -5 3 -3 11 4 19 15 16 19 13 11 -9z m-40 -2 c10
-25 -1 -29 -14 -5 -6 12 -7 21 -1 21 5 0 12 -7 15 -16z m-1797 0 c-3 -3 -12
-4 -19 -1 -8 3 -5 6 6 6 11 1 17 -2 13 -5z m1648 -4 c3 -5 -1 -10 -10 -10 -9
0 -13 5 -10 10 3 6 8 10 10 10 2 0 7 -4 10 -10z m65 -32 c0 -35 -12 -30 -17 7
-2 14 1 25 7 25 5 0 10 -14 10 -32z m-1492 3 c3 -8 -1 -12 -9 -9 -7 2 -15 10
-17 17 -3 8 1 12 9 9 7 -2 15 -10 17 -17z m625 11 c-7 -5 -10 -23 -8 -47 5
-37 4 -39 -10 -21 -8 11 -15 32 -15 48 0 22 4 28 23 28 14 0 18 -3 10 -8z
m1177 -12 c0 -5 -2 -10 -4 -10 -3 0 -8 5 -11 10 -3 6 -1 10 4 10 6 0 11 -4 11
-10z m-910 -10 c0 -5 -4 -10 -10 -10 -5 0 -10 5 -10 10 0 6 5 10 10 10 6 0 10
-4 10 -10z m460 -15 c0 -9 -9 -15 -22 -15 -21 0 -21 0 -2 15 24 18 24 18 24 0z
m-1160 -37 c0 -13 -23 -5 -28 10 -2 7 2 10 12 6 9 -3 16 -11 16 -16z m910 2
c-18 -12 -30 -13 -30 -2 0 4 10 9 22 9 18 2 20 0 8 -7z m75 0 c3 -5 1 -10 -4
-10 -6 0 -11 5 -11 10 0 6 2 10 4 10 3 0 8 -4 11 -10z m-383 -32 c-7 -7 -12
-8 -12 -2 0 14 12 26 19 19 2 -3 -1 -11 -7 -17z m552 7 c-4 -8 -8 -15 -10 -15
-2 0 -4 7 -4 15 0 8 4 15 10 15 5 0 7 -7 4 -15z m-710 -11 c3 -8 2 -12 -4 -9
-6 3 -10 10 -10 16 0 14 7 11 14 -7z m-369 -4 c3 -5 -3 -10 -14 -10 -12 0 -21
5 -21 10 0 6 6 10 14 10 8 0 18 -4 21 -10z m944 -32 c1 -5 -3 -8 -9 -8 -5 0
-10 12 -9 28 0 24 1 25 9 7 5 -11 9 -23 9 -27z m581 32 c0 -5 -2 -10 -4 -10
-3 0 -8 5 -11 10 -3 6 -1 10 4 10 6 0 11 -4 11 -10z m230 1 c0 -17 -18 -21
-24 -6 -3 9 0 15 9 15 8 0 15 -4 15 -9z m-1029 -28 c-12 -20 -14 -14 -5 12 4
9 9 14 11 11 3 -2 0 -13 -6 -23z m131 -58 c-7 -12 -20 30 -20 65 0 19 3 15 13
-15 7 -22 10 -44 7 -50z m205 53 c-3 -8 -6 -5 -6 6 -1 11 2 17 5 13 3 -3 4
-12 1 -19z m550 -5 c-3 -3 -11 -2 -17 2 -9 6 -9 10 1 16 14 8 27 -7 16 -18z
m-1210 -24 c-2 -26 -3 -27 -14 -12 -11 14 -13 14 -13 1 0 -8 9 -23 20 -33 23
-21 18 -35 -11 -30 -17 3 -20 0 -16 -16 4 -16 3 -18 -9 -8 -16 14 -19 39 -3
39 6 0 10 12 9 28 -1 15 1 37 5 49 10 31 34 18 32 -18z m1116 26 c-3 -9 -8
-14 -10 -11 -3 3 -2 9 2 15 9 16 15 13 8 -4z m-2143 -5 c0 -5 -4 -10 -10 -10
-5 0 -10 5 -10 10 0 6 5 10 10 10 6 0 10 -4 10 -10z m2690 -47 c-11 -17 -11
-17 -6 0 3 10 7 26 7 35 1 15 2 15 6 0 2 -10 -1 -25 -7 -35z m-2070 27 c0 -5
11 -12 25 -16 14 -3 25 -10 25 -15 0 -6 8 -5 19 0 15 8 20 7 26 -6 3 -10 1
-19 -4 -21 -6 -2 -11 -8 -11 -14 0 -6 6 -6 15 2 16 14 36 5 30 -13 -6 -15 63
-93 72 -83 4 4 1 11 -7 16 -8 5 -11 13 -6 17 5 4 11 2 13 -4 3 -7 8 -13 12
-13 11 0 121 -104 121 -114 0 -4 -5 -4 -12 0 -8 5 -9 0 -6 -14 4 -16 2 -22 -9
-22 -11 0 -14 7 -10 25 3 21 -4 34 -37 65 -22 21 -43 36 -46 33 -3 -3 1 -8 8
-10 6 -3 12 -11 12 -18 0 -7 14 -22 31 -33 25 -16 28 -20 14 -26 -12 -4 -31 9
-65 41 -79 79 -142 128 -162 128 -24 1 -97 67 -79 73 6 2 18 -1 25 -8 9 -7 16
-7 20 -1 4 5 -3 12 -14 16 -20 7 -28 25 -10 25 6 0 10 -4 10 -10z m1644 -12
c-1 -13 -3 -26 -3 -30 -1 -12 -31 -9 -31 2 0 6 5 10 10 10 6 0 10 9 10 20 0
11 4 20 8 20 5 0 8 -10 6 -22z m-1759 -24 c19 -15 18 -15 -14 -10 -41 7 -43 9
-35 29 4 11 9 13 17 6 7 -5 21 -17 32 -25z m394 13 c12 -15 12 -17 -3 -11 -9
3 -16 13 -16 22 0 8 1 13 3 11 1 -2 9 -12 16 -22z m-459 9 c0 -3 -4 -8 -10
-11 -5 -3 -10 -1 -10 4 0 6 5 11 10 11 6 0 10 -2 10 -4z m950 -16 c0 -11 -4
-20 -9 -20 -5 0 -7 9 -4 20 3 11 7 20 9 20 2 0 4 -9 4 -20z m-980 -10 c0 -5
-4 -10 -10 -10 -5 0 -10 5 -10 10 0 6 5 10 10 10 6 0 10 -4 10 -10z m2210 -30
c-16 -40 -23 -33 -9 9 6 18 14 30 17 27 2 -3 -1 -19 -8 -36z m90 21 c0 -5 -7
-12 -16 -15 -14 -5 -15 -4 -4 9 14 17 20 19 20 6z m-1420 -11 c0 -5 -5 -10
-11 -10 -5 0 -7 5 -4 10 3 6 8 10 11 10 2 0 4 -4 4 -10z m2316 -14 c73 -5 119
-10 169 -19 24 -4 36 -67 13 -67 -9 0 -9 -3 2 -10 25 -16 30 -12 30 30 0 22 5
40 10 40 6 0 10 -18 10 -40 l0 -40 43 0 c23 0 51 -7 61 -15 25 -19 62 -19 73
-1 12 20 112 41 126 27 6 -6 37 -11 69 -11 64 0 75 -13 38 -50 -11 -11 -20
-22 -20 -25 0 -3 19 -5 43 -5 30 0 45 5 54 19 10 17 21 18 101 13 55 -3 103 0
123 7 26 9 35 8 49 -4 9 -8 35 -15 58 -15 23 0 42 -4 42 -10 0 -18 18 -11 48
20 29 29 34 30 122 30 106 0 150 -16 150 -55 0 -21 7 -25 53 -34 28 -6 180
-13 337 -15 295 -5 349 -8 366 -19 6 -3 29 -7 52 -8 33 -2 42 -7 47 -26 7 -28
25 -30 25 -3 0 17 7 20 51 20 43 0 54 -4 71 -26 11 -14 26 -23 33 -20 7 2 16
2 20 -2 4 -4 11 -8 16 -8 5 -1 14 -2 19 -3 14 -2 12 -21 -2 -21 -6 0 -22 -9
-34 -21 -18 -17 -33 -20 -90 -18 -72 1 -126 1 -256 -4 -66 -2 -80 -5 -99 -26
-19 -20 -28 -22 -63 -17 -22 4 -47 13 -56 20 -18 16 -90 10 -90 -8 0 -7 -28
-11 -87 -10 -49 1 -121 -5 -161 -12 -41 -8 -117 -14 -170 -14 -53 0 -144 -5
-202 -12 -90 -10 -116 -9 -161 3 -40 11 -83 13 -164 8 -150 -8 -350 0 -507 20
-32 4 -88 4 -124 -1 -37 -5 -114 -8 -170 -6 -57 2 -105 -1 -107 -6 -3 -10 -67
17 -110 47 -20 13 -37 17 -60 13 -18 -3 -39 -1 -47 4 -11 7 -5 10 23 10 36 0
36 1 19 18 -10 10 -27 22 -36 25 -14 6 -17 15 -14 41 3 27 1 33 -12 28 -13 -5
-13 -3 -1 11 7 9 18 14 25 10 6 -4 21 -6 33 -5 11 2 24 -2 28 -8 5 -8 10 -8
20 0 10 8 15 8 20 0 12 -19 53 -30 77 -21 23 9 23 9 -4 16 -32 8 -38 35 -8 35
31 0 26 38 -6 46 -16 4 -23 12 -20 20 3 8 1 14 -4 14 -6 0 -10 4 -10 9 0 5 18
7 40 4 82 -11 43 13 -125 76 -16 7 -9 13 43 37 34 15 62 32 62 37 0 5 6 4 13
-2 8 -6 50 -13 93 -15z m-2656 5 c0 -17 -18 -21 -24 -6 -3 9 0 15 9 15 8 0 15
-4 15 -9z m409 -28 c0 -25 -1 -26 -9 -8 -12 27 -12 35 0 35 6 0 10 -12 9 -27z
m53 2 c3 -13 1 -22 -3 -19 -9 5 -13 44 -5 44 2 0 6 -11 8 -25z m3336 -5 c30 0
73 -21 69 -34 -4 -11 -190 -25 -235 -17 -18 3 -20 6 -11 17 7 9 32 14 70 14
58 0 59 1 59 28 1 24 2 25 14 10 7 -10 23 -18 34 -18z m57 10 c3 -5 -1 -10 -9
-10 -9 0 -16 5 -16 10 0 6 4 10 9 10 6 0 13 -4 16 -10z m427 -15 c-7 -48 -24
-75 -48 -75 -20 0 -24 5 -24 30 0 44 20 71 50 68 19 -2 24 -8 22 -23z m-4442
-1 c0 -8 -5 -12 -10 -9 -6 4 -8 11 -5 16 9 14 15 11 15 -7z m1270 -4 c0 -5 -5
-10 -11 -10 -5 0 -7 5 -4 10 3 6 8 10 11 10 2 0 4 -4 4 -10z m175 -1 c11 -17
-1 -21 -15 -4 -8 9 -8 15 -2 15 6 0 14 -5 17 -11z m1765 2 c0 -5 3 -16 6 -25
9 -23 -23 -20 -36 3 -14 27 -13 31 10 31 11 0 20 -4 20 -9z m-942 -13 c-2 -6
-15 -18 -29 -26 -21 -12 -22 -12 -6 1 9 8 17 19 17 26 0 6 5 11 11 11 6 0 9
-5 7 -12z m1457 -8 c3 -5 -6 -12 -21 -16 -16 -4 -29 -2 -33 5 -4 6 -15 9 -23
6 -9 -4 -19 -2 -23 4 -4 7 11 11 44 11 27 0 53 -4 56 -10z m-3145 -10 c0 -5
-2 -10 -4 -10 -3 0 -8 5 -11 10 -3 6 -1 10 4 10 6 0 11 -4 11 -10z m72 -12
c-6 -6 -8 -17 -5 -24 3 -8 0 -14 -6 -14 -12 0 -14 20 -5 44 3 9 11 13 16 10 6
-4 6 -10 0 -16z m-132 -14 c0 -8 -4 -12 -10 -9 -5 3 -10 10 -10 16 0 5 5 9 10
9 6 0 10 -7 10 -16z m1246 -20 c-4 -9 -9 -15 -11 -12 -3 3 -3 13 1 22 4 9 9
15 11 12 3 -3 3 -13 -1 -22z m78 -15 c-13 -14 -21 -16 -28 -9 -8 8 -4 17 14
32 30 24 41 7 14 -23z m-1464 21 c0 -5 -2 -10 -4 -10 -3 0 -8 5 -11 10 -3 6
-1 10 4 10 6 0 11 -4 11 -10z m350 6 c0 -3 -4 -8 -10 -11 -5 -3 -10 -1 -10 4
0 6 5 11 10 11 6 0 10 -2 10 -4z m-180 -22 c0 -8 -5 -12 -10 -9 -6 4 -8 11 -5
16 9 14 15 11 15 -7z m380 6 c0 -5 -2 -10 -4 -10 -3 0 -8 5 -11 10 -3 6 -1 10
4 10 6 0 11 -4 11 -10z m540 -11 c0 -5 -4 -9 -10 -9 -5 0 -10 7 -10 16 0 8 5
12 10 9 6 -3 10 -10 10 -16z m-1258 -33 c10 -19 8 -18 -16 3 -14 14 -26 29
-26 34 0 13 29 -12 42 -37z m668 40 c0 -3 -4 -8 -10 -11 -5 -3 -10 -1 -10 4 0
6 5 11 10 11 6 0 10 -2 10 -4z m-1467 -38 c-5 -24 -3 -29 7 -23 9 5 11 4 6 -3
-4 -7 7 -20 28 -33 20 -12 36 -22 36 -24 0 -7 -72 14 -85 25 -16 13 -19 47 -9
74 11 29 24 17 17 -16z m1177 1 c0 -6 -4 -7 -10 -4 -5 3 -10 11 -10 16 0 6 5
7 10 4 6 -3 10 -11 10 -16z m-149 -6 c13 -16 12 -17 -3 -4 -10 7 -18 15 -18
17 0 8 8 3 21 -13z m386 -28 c-23 -22 -33 -18 -12 5 10 11 20 18 23 16 2 -3
-3 -12 -11 -21z m-549 -16 l24 -29 -36 22 c-36 24 -46 38 -23 37 6 0 23 -13
35 -30z m292 4 c0 -13 -3 -13 -15 -3 -8 7 -15 16 -15 21 0 5 7 6 15 3 8 -4 15
-13 15 -21z m195 9 c-3 -3 -11 0 -18 7 -9 10 -8 11 6 5 10 -3 15 -9 12 -12z
m148 -1 c-2 -6 4 -11 13 -11 11 0 14 -5 10 -16 -3 -9 -6 -22 -6 -30 0 -9 -4
-13 -8 -10 -5 3 -9 -1 -9 -9 0 -23 24 -17 32 8 18 53 23 62 24 47 1 -8 9 -25
19 -36 13 -16 22 -20 37 -14 17 7 17 9 3 9 -20 1 -26 51 -7 51 5 0 7 -5 4 -11
-4 -6 0 -16 9 -22 18 -14 49 -97 36 -97 -5 0 -14 9 -20 20 -14 27 -30 25 -30
-3 0 -29 -52 -52 -82 -36 -17 9 -17 11 -3 26 9 8 13 18 10 21 -3 3 -11 0 -17
-6 -18 -18 -68 -15 -68 3 0 8 -7 15 -15 15 -17 0 -20 -16 -5 -25 6 -3 10 -12
10 -18 0 -7 -10 -1 -21 13 -20 24 -21 24 -16 3 6 -28 6 -28 -21 -4 -27 22 -28
33 -4 29 12 -2 16 3 15 20 -2 12 1 22 6 22 8 0 24 37 22 53 -1 4 4 7 9 7 6 0
10 -7 10 -16 0 -11 5 -14 16 -10 9 3 20 6 25 6 6 0 7 9 4 21 -5 16 -3 20 6 16
8 -2 13 -10 12 -16z m-693 -11 c6 -11 14 -19 18 -16 4 2 8 -4 8 -14 0 -16 -3
-16 -29 6 -16 13 -33 24 -38 24 -6 0 -7 5 -4 10 10 17 34 11 45 -10z m414 4
c3 -8 2 -12 -4 -9 -6 3 -10 10 -10 16 0 14 7 11 14 -7z m57 -14 c10 0 10 -3 2
-11 -17 -17 -43 -3 -43 23 1 21 2 22 14 6 7 -10 19 -18 27 -18z m960 -3 c-10
-9 -11 -8 -5 6 3 10 9 15 12 12 3 -3 0 -11 -7 -18z m-854 -35 c-2 -22 -6 -28
-20 -24 -22 6 -33 22 -14 22 8 0 17 7 21 15 9 24 15 17 13 -13z m673 24 c0 -3
-4 -8 -10 -11 -5 -3 -10 -1 -10 4 0 6 5 11 10 11 6 0 10 -2 10 -4z m-1780 -25
c0 -6 19 -22 43 -36 27 -17 33 -24 17 -19 -48 13 -103 64 -70 64 6 0 10 -4 10
-9z m907 -6 c8 -9 13 -18 11 -21 -3 -2 -13 5 -23 16 -21 23 -11 27 12 5z m93
-27 c0 -12 -28 -9 -36 3 -3 6 0 15 7 20 13 7 28 -5 29 -23z m420 22 c8 -5 12
-11 10 -14 -3 -2 -14 2 -24 10 -22 15 -10 19 14 4z m180 -10 c0 -5 -2 -10 -4
-10 -3 0 -8 5 -11 10 -3 6 -1 10 4 10 6 0 11 -4 11 -10z m-955 -20 c3 -5 2
-10 -4 -10 -5 0 -13 5 -16 10 -3 6 -2 10 4 10 5 0 13 -4 16 -10z m-109 -47
c-9 -9 -64 17 -70 33 -4 10 6 9 35 -7 23 -11 38 -23 35 -26z m15 30 c13 -15
12 -15 -8 -4 -24 12 -29 21 -14 21 5 0 15 -7 22 -17z m96 -35 c3 -37 -29 -13
-40 29 -5 22 -4 22 17 6 12 -9 23 -25 23 -35z m143 32 c0 -5 -4 -10 -10 -10
-5 0 -10 5 -10 10 0 6 5 10 10 10 6 0 10 -4 10 -10z m820 0 c0 -5 -5 -10 -11
-10 -5 0 -7 5 -4 10 3 6 8 10 11 10 2 0 4 -4 4 -10z m-590 -10 c0 -5 7 -7 15
-4 8 4 15 1 15 -5 0 -16 -25 -13 -40 4 -9 10 -9 15 -1 15 6 0 11 -4 11 -10z
m495 -11 c11 -16 1 -19 -13 -3 -7 8 -8 14 -3 14 5 0 13 -5 16 -11z m-1425 -14
c-7 -9 -15 -13 -19 -10 -3 3 1 10 9 15 21 14 24 12 10 -5z m2453 -36 c-5 -5
-41 -11 -79 -14 -54 -4 -62 -3 -34 5 19 5 52 12 73 15 33 5 37 9 32 28 -5 21
-5 21 7 -1 7 -15 8 -26 1 -33z m-1337 20 c19 -22 19 -22 -3 -10 -13 6 -23 16
-23 21 0 15 5 12 26 -11z m764 17 c0 -3 -4 -8 -10 -11 -5 -3 -10 -1 -10 4 0 6
5 11 10 11 6 0 10 -2 10 -4z m-1468 -28 c-16 -16 -15 -63 1 -75 6 -6 54 -27
105 -48 51 -21 95 -42 98 -47 3 -4 -19 1 -48 13 -29 11 -78 30 -108 41 -60 22
-80 40 -80 73 0 23 29 69 38 60 3 -3 0 -11 -6 -17z m225 4 c13 -9 19 -22 15
-28 -4 -7 -15 -1 -30 18 -26 31 -19 37 15 10z m341 -3 c7 -12 11 -24 8 -27 -6
-6 -35 27 -36 41 0 14 15 7 28 -14z m72 -11 c0 -6 -7 -5 -15 2 -8 7 -15 17
-15 22 0 6 7 5 15 -2 8 -7 15 -17 15 -22z m430 2 c0 -5 -5 -10 -11 -10 -5 0
-7 5 -4 10 3 6 8 10 11 10 2 0 4 -4 4 -10z m-620 -15 c7 -9 8 -15 2 -15 -5 0
-12 7 -16 15 -3 8 -4 15 -2 15 2 0 9 -7 16 -15z m535 5 c3 -5 -1 -10 -9 -10
-9 0 -16 5 -16 10 0 6 4 10 9 10 6 0 13 -4 16 -10z m-599 -21 c19 -22 19 -22
-3 -10 -24 12 -39 31 -25 31 5 0 17 -10 28 -21z m681 -25 c2 -13 1 -15 -4 -4
-3 8 -11 19 -17 23 -7 6 -6 7 4 4 8 -2 16 -12 17 -23z m-337 -4 c8 -5 11 -10
5 -10 -5 0 -17 5 -25 10 -8 5 -10 10 -5 10 6 0 17 -5 25 -10z m-405 -10 c3 -6
-1 -7 -9 -4 -18 7 -21 14 -7 14 6 0 13 -4 16 -10z m683 -15 c-3 -3 -9 2 -12
12 -6 14 -5 15 5 6 7 -7 10 -15 7 -18z m227 15 c3 -6 -4 -10 -17 -10 -18 0
-20 2 -8 10 19 12 18 12 25 0z m1286 -72 c11 7 24 10 29 7 6 -4 10 1 10 9 0 9
4 16 10 16 35 0 64 -148 36 -183 -17 -22 -74 -37 -131 -36 -22 1 -32 3 -22 6
9 2 17 9 17 14 0 5 8 10 18 11 9 1 -30 4 -87 7 -95 5 -103 7 -86 21 13 11 16
11 11 2 -6 -10 -3 -13 10 -10 11 2 18 10 16 17 -2 10 6 12 30 8 18 -3 27 -3
21 0 -20 8 -15 23 7 23 27 0 25 13 -4 35 -27 21 -30 53 -6 73 13 11 11 12 -10
6 -22 -6 -23 -5 -8 10 9 9 21 16 27 16 6 0 8 8 4 18 -3 9 15 -5 41 -33 42 -44
49 -48 67 -37z m-2056 46 c37 -19 42 -24 20 -19 -16 3 -37 13 -46 21 -9 8 -19
11 -22 7 -4 -3 -7 -1 -7 5 0 15 -3 16 55 -14z m80 16 c3 -5 2 -10 -4 -10 -5 0
-13 5 -16 10 -3 6 -2 10 4 10 5 0 13 -4 16 -10z m575 0 c0 -5 -4 -10 -10 -10
-5 0 -10 5 -10 10 0 6 5 10 10 10 6 0 10 -4 10 -10z m-404 -35 c29 -39 27 -54
-4 -34 -17 11 -42 49 -42 64 0 15 23 0 46 -30z m1642 -16 c9 -34 8 -40 -4 -35
-10 4 -14 -2 -14 -20 0 -26 -30 -44 -95 -57 -28 -6 -28 -6 -7 5 18 9 22 18 20
42 -3 27 0 31 21 28 23 -2 23 -2 7 24 -17 25 -17 25 2 15 17 -9 21 -7 26 14
10 38 32 30 44 -16z m-828 27 c0 -3 -4 -8 -10 -11 -5 -3 -10 -1 -10 4 0 6 5
11 10 11 6 0 10 -2 10 -4z m-755 -26 c3 -6 -1 -7 -9 -4 -18 7 -21 14 -7 14 6
0 13 -4 16 -10z m210 0 c3 -5 1 -10 -4 -10 -6 0 -11 5 -11 10 0 6 2 10 4 10 3
0 8 -4 11 -10z m-1591 -26 c3 -8 2 -12 -4 -9 -6 3 -10 10 -10 16 0 14 7 11 14
-7z m1523 -1 c3 -7 -4 -9 -16 -6 -12 3 -18 9 -15 15 7 11 26 6 31 -9z m328 7
c3 -6 -4 -10 -17 -10 -18 0 -20 2 -8 10 19 12 18 12 25 0z m-840 -10 c3 -5 2
-10 -4 -10 -5 0 -13 5 -16 10 -3 6 -2 10 4 10 5 0 13 -4 16 -10z m170 -41 c14
-1 15 -3 4 -6 -21 -5 -69 14 -69 27 0 7 9 5 22 -4 12 -9 32 -17 43 -17z m72
25 c-3 -3 -12 -4 -19 -1 -8 3 -5 6 6 6 11 1 17 -2 13 -5z m366 -1 c-7 -2 -19
-2 -25 0 -7 3 -2 5 12 5 14 0 19 -2 13 -5z m-189 -18 c-7 -17 -20 -20 -28 -6
-4 5 0 12 6 14 23 9 28 7 22 -8z m107 -2 c13 -15 12 -15 -11 -3 -34 17 -36 20
-18 20 9 0 22 -7 29 -17z m-161 -19 c0 -2 -9 -4 -21 -4 -11 0 -18 4 -14 10 5
8 35 3 35 -6z m-1058 -179 c-1 -11 4 -23 11 -27 6 -4 8 -11 3 -15 -5 -4 -11
-2 -13 5 -3 6 -11 12 -18 12 -16 0 -28 60 -19 97 l7 27 15 -39 c8 -22 14 -49
14 -60z m1805 39 c-3 -3 -12 -4 -19 -1 -8 3 -5 6 6 6 11 1 17 -2 13 -5z m83
-19 c5 -14 16 -25 25 -25 18 0 20 -17 3 -22 -7 -3 -9 -12 -4 -23 6 -17 9 -16
23 13 18 36 29 36 19 -1 -9 -38 -45 -77 -70 -77 -13 0 -54 23 -92 51 -89 66
-98 76 -48 50 23 -11 49 -27 57 -36 10 -9 18 -11 22 -5 3 5 1 10 -4 10 -20 0
-11 18 10 23 16 4 20 11 16 26 -3 12 -1 19 4 15 5 -3 9 2 9 10 0 25 19 19 30
-9z m-686 -85 c9 0 31 7 47 16 17 8 33 14 35 11 2 -2 -16 -15 -40 -28 -50 -26
-65 -22 -128 33 l-33 29 51 -31 c28 -16 59 -30 68 -30z m-915 25 c-9 -9 -219
-24 -236 -17 -11 4 9 9 52 13 96 8 189 10 184 4z m304 -75 c12 -5 18 -9 12
-10 -12 0 16 -20 30 -20 6 0 3 5 -5 10 -11 8 -9 9 11 5 17 -4 32 -1 42 9 17
17 37 21 37 7 0 -5 -23 -18 -50 -30 -38 -16 -55 -19 -69 -11 -22 11 -56 63
-65 100 -5 17 0 12 14 -13 12 -21 31 -42 43 -47z m117 55 c0 -8 -4 -15 -10
-15 -5 0 -10 7 -10 15 0 8 5 15 10 15 6 0 10 -7 10 -15z m1440 -16 c0 -6 -4
-7 -10 -4 -5 3 -10 11 -10 16 0 6 5 7 10 4 6 -3 10 -11 10 -16z m112 -21 c32
-36 44 -34 23 5 -19 36 -4 35 16 -2 16 -27 16 -30 -4 -50 -14 -14 -17 -21 -8
-21 8 0 20 -8 27 -17 12 -16 13 -16 14 -1 0 9 -5 18 -12 20 -7 3 -8 9 -3 18 7
11 10 10 16 -6 12 -31 10 -64 -6 -80 -19 -19 -19 -44 -1 -44 8 0 17 10 19 23
3 18 5 17 6 -7 1 -35 -33 -93 -59 -101 -11 -4 -48 -6 -82 -7 -35 0 -88 0 -118
-1 -72 -1 -227 50 -208 68 3 4 21 0 40 -8 71 -32 135 -47 174 -41 73 11 72 20
-15 120 -65 74 -68 80 -49 89 16 7 24 5 37 -11 9 -11 24 -23 33 -27 15 -5 17
-1 13 38 -4 46 6 58 24 28 10 -17 10 -17 11 0 0 22 5 22 30 -3 11 -11 27 -20
35 -20 20 0 31 28 16 43 -12 12 -15 27 -4 27 3 0 19 -14 35 -32z m-292 -4 c0
-8 -5 -12 -10 -9 -6 4 -8 11 -5 16 9 14 15 11 15 -7z m35 6 c3 -5 1 -10 -4
-10 -6 0 -11 5 -11 10 0 6 2 10 4 10 3 0 8 -4 11 -10z m-1054 -161 c12 -23 0
-47 -31 -69 -13 -8 -29 -21 -37 -29 -8 -7 -17 -10 -21 -7 -3 4 0 11 7 15 7 5
10 14 7 20 -4 6 -12 9 -17 5 -6 -3 -19 2 -29 11 -18 16 -18 20 -4 47 14 27 17
28 32 15 38 -32 45 -32 40 5 -4 35 -3 35 20 20 12 -8 27 -23 33 -33z m-227 -7
c13 -26 36 -59 51 -75 15 -15 23 -27 18 -27 -23 0 -103 107 -103 140 0 20 10
9 34 -38z m895 -76 c-10 -33 -25 -66 -33 -74 -13 -14 -12 -17 10 -28 46 -24
92 -28 120 -9 36 24 45 8 11 -21 -35 -30 -51 -30 -114 1 -47 24 -75 28 -98 13
-6 -3 -28 3 -50 13 -44 22 -73 47 -41 35 12 -4 23 -1 29 6 6 9 7 7 3 -6 -5
-15 -2 -18 19 -14 14 3 28 1 31 -3 9 -15 24 -10 25 9 0 10 3 12 6 4 2 -6 9 -9
14 -6 6 3 6 11 -2 20 -6 7 -15 11 -20 8 -12 -7 -11 17 1 36 9 15 12 11 14 -20
1 -8 9 -16 20 -18 10 -2 16 0 12 6 -3 6 1 17 9 25 19 20 19 27 0 27 -8 0 -15
4 -15 9 0 5 8 8 17 7 13 -1 21 10 27 38 8 29 12 34 16 20 4 -10 -1 -45 -11
-78z m100 -63 c1 -32 -1 -45 -8 -38 -21 21 -61 107 -61 131 0 25 0 25 33 -10
27 -28 34 -44 36 -83z m-32 95 c-3 -8 -6 -5 -6 6 -1 11 2 17 5 13 3 -3 4 -12
1 -19z m-1373 -24 c3 -8 10 -12 16 -9 5 3 10 -1 10 -9 0 -28 -19 -27 -35 4 -8
16 -11 30 -6 30 5 0 12 -7 15 -16z m822 -113 c-4 -5 0 -11 6 -13 14 -5 15 -48
17 -643 2 -479 3 -445 -15 -438 -12 4 -13 8 -3 13 10 7 9 11 -2 22 -8 8 -20
13 -27 12 -7 -1 -8 0 -2 3 5 2 7 10 3 16 -4 6 0 8 10 4 15 -5 17 1 17 46 0 29
-5 58 -12 65 -8 8 -8 15 1 26 10 11 9 19 -1 35 -10 16 -10 27 0 54 15 41 17
70 3 48 -6 -10 -9 5 -8 42 1 31 5 57 10 57 4 0 7 4 7 10 0 5 -7 7 -16 3 -14
-5 -14 -3 -2 16 11 19 11 23 -4 32 -24 13 -23 33 0 27 17 -5 18 -1 11 36 -4
22 -4 42 1 44 10 4 0 42 -11 42 -5 0 -9 5 -9 10 0 6 7 10 15 10 16 0 18 23 6
55 -5 11 -4 28 1 39 7 12 7 16 0 12 -11 -6 -9 47 3 77 4 10 3 17 -4 17 -7 0
-7 8 -1 26 13 33 13 34 -7 34 -15 0 -16 2 -3 10 13 9 13 11 0 20 -13 8 -13 10
2 10 14 0 16 8 13 48 -2 26 -4 52 -5 57 -3 15 -1 25 6 25 3 0 3 -4 0 -9z
m1826 -110 c13 -5 32 -12 42 -16 36 -11 -1 -28 -56 -26 -61 2 -76 12 -53 35
19 18 34 20 67 7z m-1666 -97 c22 -22 44 -49 49 -60 7 -17 8 -17 12 -1 3 9 8
17 12 17 5 0 6 11 4 24 -4 21 24 66 42 66 11 0 4 -30 -7 -30 -7 -1 -2 -9 11
-20 23 -20 23 -20 51 0 32 23 40 25 40 10 0 -15 -38 -51 -82 -78 -71 -44 -122
-14 -192 111 -31 58 -33 73 -3 32 12 -16 40 -48 63 -71z m503 -70 c25 -5 30
-10 26 -25 -4 -13 -1 -19 9 -19 9 0 16 -5 16 -10 0 -7 -6 -7 -19 0 -11 5 -31
10 -44 10 -27 0 -52 23 -42 40 7 12 12 12 54 4z m266 -99 c0 -10 -6 -20 -12
-22 -8 -3 -13 5 -13 22 0 17 5 25 13 23 6 -3 12 -13 12 -23z m-126 -9 c7 -8
29 -17 51 -21 54 -9 78 -29 64 -52 -14 -23 -74 -33 -144 -25 -30 3 -59 5 -64
4 -4 -2 -14 2 -22 8 -17 15 -54 3 -54 -16 0 -19 -97 -19 -142 0 -43 19 -177
36 -258 35 -67 -2 -130 8 -130 19 1 33 18 36 220 34 121 -1 207 -6 215 -12 6
-5 15 -7 18 -3 4 3 44 7 89 9 61 2 84 7 90 19 11 19 52 20 67 1z m-1089 -167
c0 -27 -3 -30 -22 -23 -29 8 -28 7 -22 30 3 11 14 20 25 21 15 1 19 -5 19 -28z
m955 21 c-3 -5 -13 -10 -21 -10 -8 0 -14 5 -14 10 0 6 9 10 21 10 11 0 17 -4
14 -10z m-324 -21 c16 -8 18 -13 8 -25 -6 -8 -9 -17 -6 -20 3 -3 63 -6 134 -7
77 -1 127 -6 125 -12 -4 -19 -271 -22 -306 -3 -11 6 -26 17 -31 25 -6 7 -28
16 -50 19 -89 12 -89 19 0 24 50 4 94 7 98 8 5 1 17 -3 28 -9z m189 -13 c0 -2
-13 -6 -30 -8 -16 -3 -30 -1 -30 4 0 4 14 8 30 8 17 0 30 -2 30 -4z m-125 -86
c4 -6 -5 -10 -19 -10 -14 0 -26 5 -26 10 0 6 9 10 19 10 11 0 23 -4 26 -10z
m1840 -68 c-3 -3 -11 0 -18 7 -9 10 -8 11 6 5 10 -3 15 -9 12 -12z m123 2 c13
-4 22 -14 22 -25 0 -14 -7 -19 -30 -19 -23 0 -30 5 -30 19 0 11 -6 22 -12 24
-18 8 23 8 50 1z m1437 -50 c-45 -35 -55 -36 -55 -9 0 22 4 25 38 25 35 -1 36
-1 17 -16z m-2870 -69 c39 -3 90 -10 115 -15 25 -4 57 -6 73 -3 27 5 39 -11
15 -20 -8 -3 -5 -6 5 -6 26 -1 16 -23 -19 -40 -29 -14 -111 -22 -150 -14 -11
2 -28 17 -38 34 -24 40 -47 51 -84 38 -32 -11 -112 4 -112 21 0 11 46 19 90
14 19 -2 67 -6 105 -9z m670 -45 c-23 -8 -65 -1 -65 12 0 5 4 7 8 4 4 -2 14
-1 22 4 8 5 22 4 34 -2 20 -11 20 -11 1 -18z m-295 5 c18 -21 -4 -45 -41 -45
-33 0 -67 39 -46 52 20 13 74 9 87 -7z m419 -51 c7 -6 -2 -12 -32 -19 -23 -6
-27 -4 -27 14 0 18 4 20 28 15 15 -4 29 -8 31 -10z m-1749 -19 c0 -8 -4 -15
-10 -15 -5 0 -10 7 -10 15 0 8 5 15 10 15 6 0 10 -7 10 -15z m-260 -183 c0
-15 -11 -18 -71 -21 -46 -1 -76 2 -86 10 -13 12 -13 14 4 20 10 4 48 8 86 8
58 1 67 -1 67 -17z m376 -8 l39 -13 -57 2 c-44 2 -58 6 -61 19 -6 20 8 18 79
-8z m99 -24 c13 -5 14 -9 5 -9 -8 0 -24 4 -35 9 -13 5 -14 9 -5 9 8 0 24 -4
35 -9z m-818 -160 c-2 -8 -9 -14 -15 -12 -7 1 -12 -5 -12 -13 0 -23 -26 -18
-54 9 -28 28 -19 34 47 32 28 -1 37 -5 34 -16z m-3732 -20 c18 -19 17 -20 -6
-20 -14 0 -30 -5 -37 -12 -9 -9 -17 -9 -34 0 -13 6 -32 13 -43 15 -13 3 -10 5
10 6 17 1 41 8 55 15 34 19 34 19 55 -4z m4211 -162 c-8 -196 -32 -571 -46
-728 -5 -58 -14 -168 -20 -245 -6 -77 -15 -194 -20 -260 -6 -66 -24 -293 -41
-505 -45 -568 -49 -605 -73 -597 -6 2 -11 19 -11 38 0 37 -15 59 -39 59 -9 0
-16 8 -16 20 0 13 7 20 20 20 26 0 26 15 0 33 -14 10 -20 26 -21 58 -2 58 20
526 27 564 3 17 7 44 9 60 2 17 8 47 13 68 6 23 6 37 0 37 -5 0 -7 4 -3 9 3 6
8 32 10 58 6 59 49 355 77 523 11 69 28 190 38 270 11 80 26 197 34 260 9 63
18 142 20 175 7 86 26 237 32 247 14 23 16 -6 10 -164z m-4118 141 c12 -5 21
-16 21 -26 -1 -17 -2 -17 -6 0 -3 12 -15 17 -44 17 -29 0 -39 4 -39 16 0 16 9
15 68 -7z m-295 4 c-7 -2 -13 -10 -13 -17 0 -17 -72 -6 -78 12 -3 9 11 12 50
11 29 0 47 -3 41 -6z m342 -33 c3 -5 1 -10 -4 -10 -6 0 -11 5 -11 10 0 6 2 10
4 10 3 0 8 -4 11 -10z m-565 -10 c0 -5 -7 -10 -15 -10 -8 0 -15 5 -15 10 0 6
7 10 15 10 8 0 15 -4 15 -10z m4426 -587 c-30 -148 -64 -285 -66 -263 -1 8
-16 -57 -35 -145 -32 -154 -43 -201 -80 -365 -10 -41 -20 -89 -22 -107 -3 -18
-12 -33 -22 -36 -12 -3 -21 -24 -30 -71 -9 -43 -18 -66 -27 -66 -16 0 -17 4
-5 28 5 9 19 58 31 107 12 50 27 106 35 125 7 19 14 42 14 50 2 42 23 156 45
240 45 176 93 354 121 450 14 52 28 105 30 117 4 31 29 85 33 74 2 -6 -8 -67
-22 -138z m90 -22 c-22 -152 -41 -278 -78 -491 -49 -288 -68 -408 -89 -555
-43 -297 -50 -342 -59 -405 -6 -36 -12 -91 -14 -123 -4 -57 -15 -91 -17 -51 0
18 -1 18 -9 -1 -10 -23 -4 100 11 240 6 50 10 99 11 110 0 45 70 501 93 610 8
39 28 147 45 240 17 94 35 188 39 210 5 22 14 65 20 95 42 228 56 292 59 266
2 -17 -4 -82 -12 -145z m3162 147 c34 -6 65 -15 68 -20 9 -15 -16 -27 -40 -21
-12 3 -55 8 -96 10 -41 3 -84 12 -96 20 -18 11 -23 11 -27 1 -3 -7 -6 -3 -6 9
-1 21 2 22 67 17 37 -3 95 -10 130 -16z m-403 6 c13 -5 14 -8 3 -15 -19 -13
-28 -11 -28 6 0 17 2 18 25 9z m-45 -14 c0 -5 -9 -10 -21 -10 -11 0 -17 5 -14
10 3 6 13 10 21 10 8 0 14 -4 14 -10z m746 -25 c22 -22 17 -25 -45 -25 -60 0
-90 17 -76 41 10 15 102 3 121 -16z m-1196 -5 c-20 -13 -70 -13 -70 0 0 6 19
10 43 10 31 0 38 -3 27 -10z m103 3 c-7 -2 -19 -2 -25 0 -7 3 -2 5 12 5 14 0
19 -2 13 -5z m1251 -9 c5 -14 1 -16 -25 -10 -17 3 -38 6 -45 6 -8 0 -14 5 -14
10 0 18 77 12 84 -6z m-639 -92 c59 -8 48 -20 -26 -28 -29 -3 -64 -10 -77 -15
-24 -9 -198 -4 -252 7 -24 5 -24 6 -6 20 12 8 46 15 80 15 34 1 75 5 91 10 29
8 88 5 190 -9z m385 -74 c17 -12 30 -28 30 -35 0 -7 6 -13 14 -13 8 0 24 -9
37 -19 20 -16 35 -19 94 -14 107 7 155 23 155 50 0 16 8 25 24 29 34 8 45 -1
52 -46 l6 -39 52 1 c53 1 136 -19 136 -33 0 -5 -16 -11 -35 -15 -40 -7 -46
-21 -12 -26 12 -2 -60 -4 -161 -3 -188 0 -248 -6 -179 -20 20 -4 37 -13 37
-19 0 -14 68 -38 82 -30 15 10 118 -19 118 -32 0 -18 -62 -28 -254 -40 -27 -1
-53 -8 -57 -15 -6 -10 -11 -10 -23 1 -14 11 -105 19 -213 20 -7 0 -13 5 -13
10 0 6 14 10 31 10 35 0 72 17 64 30 -13 20 37 31 111 25 64 -6 74 -5 74 9 0
12 -10 16 -39 16 -22 0 -41 3 -43 8 -1 4 -17 17 -35 30 -26 18 -46 22 -102 22
-38 0 -105 5 -148 11 -43 6 -89 12 -103 13 -13 2 -26 8 -28 15 -6 17 -39 13
-46 -5 -6 -15 -8 -15 -31 0 -13 9 -45 16 -70 16 -41 0 -45 2 -45 25 0 23 4 25
43 26 137 4 191 10 205 21 9 8 44 13 86 13 39 1 78 4 86 7 14 6 43 14 63 17 4
0 21 -9 37 -21z m-3563 -50 c-3 -7 -5 -2 -5 12 0 14 2 19 5 13 2 -7 2 -19 0
-25z m120 -30 c-3 -8 -6 -5 -6 6 -1 11 2 17 5 13 3 -3 4 -12 1 -19z m-152 -58
c-9 -10 -14 -23 -10 -29 7 -12 -21 -77 -37 -87 -5 -4 -3 8 6 24 9 17 16 40 16
52 0 28 32 89 38 72 2 -7 -4 -22 -13 -32z m106 -181 c-22 -112 -49 -247 -60
-299 -11 -52 -33 -169 -51 -260 -17 -91 -35 -183 -40 -205 -4 -22 -18 -107
-30 -190 -22 -151 -44 -220 -34 -109 2 32 7 66 10 74 3 8 7 44 10 80 4 75 29
230 49 310 8 30 19 87 26 125 6 39 18 97 26 130 8 33 21 92 29 130 12 65 74
345 89 402 3 14 8 23 11 20 3 -3 -13 -97 -35 -208z m3355 78 c-4 -28 -19 -37
-66 -37 -57 0 -74 15 -29 25 17 4 42 13 56 20 29 15 42 12 39 -8z m-225 -18
c27 -14 15 -29 -24 -29 -21 0 -36 7 -45 20 -11 18 -10 20 19 20 16 0 39 -5 50
-11z m-3277 -43 c-3 -14 -10 -26 -14 -26 -5 0 -11 -10 -13 -22 -4 -20 -4 -20
-6 4 0 15 6 33 14 42 8 8 15 20 15 27 0 7 2 10 5 7 4 -3 3 -17 -1 -32z m-47
-138 c-3 -7 -5 -2 -5 12 0 14 2 19 5 13 2 -7 2 -19 0 -25z m-54 -179 c-6 -6
-7 3 -4 23 4 28 6 29 9 9 2 -13 0 -27 -5 -32z m0 -406 c-3 -18 -9 -30 -14 -28
-4 3 -6 12 -4 20 13 42 16 48 19 44 2 -2 1 -19 -1 -36z m-16 -65 c-3 -8 -6 -5
-6 6 -1 11 2 17 5 13 3 -3 4 -12 1 -19z m240 -250 c-3 -8 -6 -5 -6 6 -1 11 2
17 5 13 3 -3 4 -12 1 -19z m-187 -138 c0 -16 -2 -30 -4 -30 -2 0 -6 14 -8 30
-3 17 -1 30 4 30 4 0 8 -13 8 -30z m-1562 -709 c3 -8 -1 -12 -9 -9 -7 2 -15
10 -17 17 -3 8 1 12 9 9 7 -2 15 -10 17 -17z m223 2 c13 -16 12 -17 -3 -4 -10
7 -18 15 -18 17 0 8 8 3 21 -13z m79 -2 c0 -15 -16 -22 -34 -15 -25 9 -19 24
9 24 14 0 25 -4 25 -9z m1797 -33 c-3 -7 -5 -2 -5 12 0 14 2 19 5 13 2 -7 2
-19 0 -25z m1050 -125 c-9 -9 -20 -13 -24 -9 -4 4 -1 11 7 16 25 16 35 11 17
-7z m-3739 -9 c18 -5 20 -9 11 -20 -6 -8 -10 -14 -8 -15 2 0 17 -3 34 -5 27
-5 44 -19 45 -36 0 -16 -30 -7 -40 11 -6 12 -17 17 -29 14 -21 -5 -65 32 -56
47 7 12 12 12 43 4z m267 -54 c-3 -5 -12 -10 -18 -10 -7 0 -6 4 3 10 19 12 23
12 15 0z m3395 0 c0 -5 -4 -10 -10 -10 -5 0 -10 5 -10 10 0 6 5 10 10 10 6 0
10 -4 10 -10z m-39 -37 c-12 -20 -14 -14 -5 12 4 9 9 14 11 11 3 -2 0 -13 -6
-23z m-113 -15 c-8 -12 -21 -24 -29 -26 -8 -3 -3 7 10 22 30 32 39 34 19 4z
m-438 -69 c0 -5 -4 -9 -10 -9 -5 0 -10 7 -10 16 0 8 5 12 10 9 6 -3 10 -10 10
-16z m-2900 -15 c0 -2 -7 -4 -15 -4 -8 0 -15 4 -15 10 0 5 7 7 15 4 8 -4 15
-8 15 -10z m0 -94 c9 -16 8 -20 -5 -20 -8 0 -15 9 -15 20 0 11 2 20 5 20 2 0
9 -9 15 -20z m194 1 c7 -11 -22 -23 -35 -15 -5 3 -7 10 -4 15 8 12 32 12 39 0z
m129 -88 c-7 -2 -21 -2 -30 0 -10 3 -4 5 12 5 17 0 24 -2 18 -5z m1112 -133
c3 -5 -1 -10 -10 -10 -9 0 -13 5 -10 10 3 6 8 10 10 10 2 0 7 -4 10 -10z"/>
<path d="M8504 11589 c-11 -18 70 -32 111 -20 l30 8 -25 6 c-41 10 -111 13
-116 6z"/>
<path d="M8193 11483 c9 -2 25 -2 35 0 9 3 1 5 -18 5 -19 0 -27 -2 -17 -5z"/>
<path d="M1718 10753 c7 -3 16 -2 19 1 4 3 -2 6 -13 5 -11 0 -14 -3 -6 -6z"/>
<path d="M2640 10500 c0 -5 5 -10 11 -10 5 0 7 5 4 10 -3 6 -8 10 -11 10 -2 0
-4 -4 -4 -10z"/>
<path d="M10667 10139 c-23 -12 -58 -20 -88 -21 -27 0 -52 -4 -55 -9 -3 -5
-17 -9 -32 -9 -18 0 -23 -3 -16 -10 18 -18 299 -17 310 1 10 17 -30 64 -57 66
-13 2 -41 -7 -62 -18z"/>
<path d="M10340 10111 c-8 -16 -15 -18 -42 -11 -67 18 -101 19 -124 4 -13 -9
-25 -15 -28 -15 -24 4 -29 0 -18 -11 6 -6 35 -11 64 -11 163 2 203 5 220 14
19 10 19 12 2 30 -22 24 -60 24 -74 0z"/>
<path d="M10925 10115 c-5 -2 -23 -6 -39 -10 -45 -10 -13 -25 55 -25 60 0 71
4 62 26 -5 13 -51 18 -78 9z"/>
<path d="M11160 10098 c-11 -12 -20 -30 -20 -40 0 -15 9 -18 58 -20 55 -2 90
-1 142 3 14 1 38 -1 54 -6 20 -5 27 -5 22 3 -3 6 -1 14 6 18 19 12 -29 25
-127 34 -49 5 -91 14 -93 19 -6 17 -19 13 -42 -11z"/>
<path d="M10365 9960 c27 -12 35 -12 35 0 0 6 -12 10 -27 9 -25 0 -26 -1 -8
-9z"/>
<path d="M10855 9811 c-4 -7 6 -11 26 -11 27 0 30 -2 18 -16 -10 -13 -10 -17
2 -25 17 -11 21 -11 37 0 12 7 12 12 1 30 -8 11 -21 21 -31 21 -9 0 -23 3 -31
6 -8 3 -18 1 -22 -5z"/>
<path d="M12268 9713 c6 -2 18 -2 25 0 6 3 1 5 -13 5 -14 0 -19 -2 -12 -5z"/>
<path d="M2648 9723 c7 -3 16 -2 19 1 4 3 -2 6 -13 5 -11 0 -14 -3 -6 -6z"/>
<path d="M7250 8830 c0 -5 5 -10 10 -10 6 0 10 5 10 10 0 6 -4 10 -10 10 -5 0
-10 -4 -10 -10z"/>
<path d="M7220 8811 c0 -6 5 -13 10 -16 6 -3 10 1 10 9 0 9 -4 16 -10 16 -5 0
-10 -4 -10 -9z"/>
<path d="M10216 8531 c-4 -5 2 -9 11 -9 10 1 29 -2 43 -6 17 -5 20 -4 10 2
-27 17 -58 23 -64 13z"/>
<path d="M10340 8467 c0 -10 -6 -14 -15 -11 -8 4 -15 1 -15 -5 0 -6 -8 -11
-17 -12 -15 0 -15 -2 2 -8 11 -5 22 -5 25 0 3 4 16 12 29 17 20 7 21 9 7 21
-13 11 -16 11 -16 -2z"/>
<path d="M7016 8531 c17 -4 37 -11 45 -15 8 -4 5 0 -5 8 -11 9 -31 16 -45 15
-24 -1 -24 -2 5 -8z"/>
<path d="M10938 7643 c7 -3 16 -2 19 1 4 3 -2 6 -13 5 -11 0 -14 -3 -6 -6z"/>
<path d="M10756 7602 c-3 -6 -3 -13 1 -15 14 -8 63 -5 69 4 3 5 -1 9 -8 9 -7
0 -23 3 -34 6 -12 3 -25 1 -28 -4z"/>
<path d="M10234 7490 c-1 -38 -1 -38 25 -27 37 15 48 27 27 27 -10 0 -26 8
-35 19 -16 18 -16 17 -17 -19z"/>
<path d="M8525 7531 c-3 -5 -1 -12 5 -16 5 -3 10 1 10 9 0 18 -6 21 -15 7z"/>
<path d="M10138 7273 c7 -3 16 -2 19 1 4 3 -2 6 -13 5 -11 0 -14 -3 -6 -6z"/>
<path d="M10220 7245 c0 -8 10 -15 23 -17 12 -2 21 -9 20 -15 -3 -14 25 -38
34 -29 12 12 -18 52 -48 63 -23 9 -29 9 -29 -2z"/>
<path d="M10170 7190 c20 -13 33 -13 25 0 -3 6 -14 10 -23 10 -15 0 -15 -2 -2
-10z"/>
<path d="M9646 6838 c-3 -13 -7 -40 -10 -62 -3 -21 -13 -47 -22 -57 -23 -26
-9 -37 17 -13 15 13 20 15 17 4 -5 -26 54 -11 87 21 21 21 24 28 11 23 -12 -5
-17 -4 -13 3 9 14 -21 53 -50 64 -13 5 -22 13 -18 18 3 5 1 12 -5 16 -5 3 -12
-4 -14 -17z"/>
<path d="M9586 6802 c-3 -6 -1 -14 5 -17 5 -4 8 -13 5 -21 -3 -8 -1 -14 4 -14
16 0 18 15 6 39 -8 14 -16 19 -20 13z"/>
<path d="M7990 3789 c0 -5 5 -7 10 -4 6 3 10 8 10 11 0 2 -4 4 -10 4 -5 0 -10
-5 -10 -11z"/>
<path d="M11785 4270 c3 -5 13 -10 21 -10 8 0 14 5 14 10 0 6 -9 10 -21 10
-11 0 -17 -4 -14 -10z"/>
<path d="M12898 12923 c12 -2 32 -2 45 0 12 2 2 4 -23 4 -25 0 -35 -2 -22 -4z"/>
<path d="M10858 11739 c-18 -10 -25 -38 -10 -40 47 -7 82 -4 106 8 l30 15 -25
14 c-29 16 -77 17 -101 3z"/>
<path d="M9395 11700 c-4 -7 -3 -16 3 -22 14 -14 45 -2 40 15 -6 16 -34 21
-43 7z"/>
<path d="M11426 11683 c-14 -4 -15 -7 -6 -13 16 -10 52 -1 44 11 -5 9 -8 10
-38 2z"/>
<path d="M12010 11617 c-19 -7 -36 -20 -38 -30 -4 -22 25 -57 47 -57 19 1 61
34 61 48 0 6 12 12 28 14 16 2 27 9 27 18 0 20 -77 24 -125 7z"/>
<path d="M10318 11423 c-21 -2 -38 -8 -38 -14 0 -5 -9 -9 -20 -9 -11 0 -20 -6
-20 -12 0 -10 33 -14 120 -16 96 -3 120 -1 120 10 0 8 -13 21 -29 31 -28 16
-53 18 -133 10z"/>
<path d="M9908 11393 c6 -2 18 -2 25 0 6 3 1 5 -13 5 -14 0 -19 -2 -12 -5z"/>
<path d="M8969 11237 c5 -5 24 -7 42 -5 33 3 33 4 -8 8 -23 3 -39 2 -34 -3z"/>
<path d="M12349 6179 c-7 -5 -24 -9 -36 -9 -32 0 -73 -21 -73 -37 0 -7 -4 -13
-10 -13 -9 0 6 -22 38 -56 15 -16 55 -4 87 26 11 10 33 22 49 26 26 6 27 8 13
19 -10 7 -17 17 -17 23 0 18 -34 32 -51 21z"/>
<path d="M11840 6130 c0 -5 -8 -10 -17 -10 -15 0 -16 -2 -3 -10 20 -13 33 -13
25 0 -3 6 3 10 15 10 12 0 18 5 15 10 -3 6 -13 10 -21 10 -8 0 -14 -4 -14 -10z"/>
<path d="M12560 6130 c0 -5 7 -10 15 -10 8 0 15 5 15 10 0 6 -7 10 -15 10 -8
0 -15 -4 -15 -10z"/>
<path d="M12080 6111 c0 -5 9 -7 20 -4 11 3 20 7 20 9 0 2 -9 4 -20 4 -11 0
-20 -4 -20 -9z"/>
<path d="M12560 6086 c0 -9 5 -16 10 -16 6 0 10 4 10 9 0 6 -4 13 -10 16 -5 3
-10 -1 -10 -9z"/>
<path d="M10468 5963 c7 -3 16 -2 19 1 4 3 -2 6 -13 5 -11 0 -14 -3 -6 -6z"/>
<path d="M10480 5876 c0 -12 6 -13 30 -5 17 6 30 13 30 15 0 2 -13 4 -30 4
-20 0 -30 -5 -30 -14z"/>
<path d="M8543 4760 c0 -47 2 -66 4 -42 2 23 2 61 0 85 -2 23 -4 4 -4 -43z"/>
<path d="M8671 4754 c0 -11 3 -14 6 -6 3 7 2 16 -1 19 -3 4 -6 -2 -5 -13z"/>
<path d="M8617 4540 c3 -69 9 -143 13 -165 10 -47 2 124 -10 225 -6 45 -7 26
-3 -60z"/>
<path d="M8712 4470 c0 -14 2 -19 5 -12 2 6 2 18 0 25 -3 6 -5 1 -5 -13z"/>
<path d="M8642 4270 c0 -30 3 -77 8 -105 l7 -50 1 50 c0 28 -3 75 -8 105 l-7
55 -1 -55z"/>
<path d="M8771 4114 c0 -11 3 -14 6 -6 3 7 2 16 -1 19 -3 4 -6 -2 -5 -13z"/>
<path d="M8661 4064 c1 -52 37 -350 38 -317 1 39 -29 336 -35 342 -2 2 -4 -9
-3 -25z"/>
<path d="M8792 3990 c0 -14 2 -19 5 -12 2 6 2 18 0 25 -3 6 -5 1 -5 -13z"/>
<path d="M8802 3920 c0 -14 2 -19 5 -12 2 6 2 18 0 25 -3 6 -5 1 -5 -13z"/>
<path d="M8817 3835 c3 -22 7 -42 9 -44 8 -9 2 45 -6 64 -7 14 -8 8 -3 -20z"/>
<path d="M8831 3734 c0 -11 3 -14 6 -6 3 7 2 16 -1 19 -3 4 -6 -2 -5 -13z"/>
<path d="M9140 3695 c0 -5 5 -17 10 -25 5 -8 10 -10 10 -5 0 6 -5 17 -10 25
-5 8 -10 11 -10 5z"/>
<path d="M8703 3650 c0 -25 2 -35 4 -22 2 12 2 32 0 45 -2 12 -4 2 -4 -23z"/>
<path d="M8856 3565 c4 -22 11 -60 15 -85 6 -35 7 -29 3 24 -3 38 -9 77 -15
85 -7 11 -8 4 -3 -24z"/>
<path d="M9191 3544 c0 -11 3 -14 6 -6 3 7 2 16 -1 19 -3 4 -6 -2 -5 -13z"/>
<path d="M9200 3501 c0 -11 4 -22 9 -25 4 -3 6 6 3 19 -5 30 -12 33 -12 6z"/>
<path d="M8881 3399 c0 -19 5 -43 10 -54 6 -13 7 -4 3 30 -8 60 -14 72 -13 24z"/>
<path d="M3050 3370 c-13 -8 -13 -10 2 -10 9 0 20 5 23 10 8 13 -5 13 -25 0z"/>
<path d="M8903 3245 c0 -22 2 -30 4 -17 2 12 2 30 0 40 -3 9 -5 -1 -4 -23z"/>
<path d="M1150 3250 c0 -5 5 -10 11 -10 5 0 7 5 4 10 -3 6 -8 10 -11 10 -2 0
-4 -4 -4 -10z"/>
<path d="M1476 3251 c-8 -13 36 -19 85 -11 49 8 46 10 -28 16 -29 2 -54 0 -57
-5z"/>
<path d="M9041 3204 c1 -21 5 -52 9 -69 5 -19 6 -6 3 35 -6 73 -14 94 -12 34z"/>
<path d="M8912 3160 c0 -19 2 -27 5 -17 2 9 2 25 0 35 -3 9 -5 1 -5 -18z"/>
<path d="M10116 3141 c-7 -10 22 -37 30 -28 9 8 -3 37 -15 37 -5 0 -12 -4 -15
-9z"/>
<path d="M6285 3080 c-8 -26 -1 -36 37 -56 30 -16 32 -15 49 7 23 30 19 43
-12 47 -13 2 -28 8 -33 13 -16 15 -34 10 -41 -11z"/>
<path d="M526 3058 c-10 -37 -7 -58 8 -58 26 0 40 28 28 55 -14 31 -28 32 -36
3z"/>
<path d="M10130 3072 c0 -5 7 -17 15 -28 14 -18 14 -18 15 9 0 17 -5 27 -15
27 -8 0 -15 -4 -15 -8z"/>
<path d="M5037 2993 c-2 -4 -8 -22 -11 -40 -6 -26 -4 -32 13 -38 28 -8 41 1
41 29 0 24 -34 63 -43 49z"/>
<path d="M540 2935 c0 -9 -7 -18 -16 -22 -8 -3 -20 -15 -25 -27 -6 -11 -20
-39 -33 -61 -19 -34 -27 -40 -52 -37 -55 5 -94 -7 -94 -29 0 -11 -4 -28 -10
-38 -8 -16 -5 -18 23 -17 24 1 33 7 35 21 3 22 51 50 64 37 4 -4 5 -24 1 -45
-4 -27 -11 -37 -22 -36 -32 3 -36 -2 -38 -47 -2 -39 1 -47 18 -51 18 -5 19 -7
4 -29 -8 -13 -15 -34 -15 -47 0 -31 -34 -62 -57 -52 -12 5 -14 9 -5 12 6 3 12
11 12 19 0 19 -54 18 -70 -1 -7 -8 -23 -15 -36 -15 -12 0 -26 -4 -29 -10 -3
-5 -17 -10 -30 -10 -30 0 -40 -27 -15 -40 23 -12 63 -13 75 -1 6 5 31 11 56
13 l46 5 -1 -49 c-1 -43 -5 -52 -28 -64 -22 -12 -27 -12 -32 1 -3 8 -17 15
-31 15 -19 0 -25 5 -23 17 4 20 -43 35 -109 37 -26 0 -43 5 -43 12 0 13 -22
24 -46 24 -22 0 -19 -69 4 -76 9 -3 26 -9 37 -14 11 -5 28 -11 38 -14 9 -3 17
-14 17 -25 0 -22 -29 -35 -77 -33 -33 1 -33 1 -33 -48 0 -48 1 -50 28 -51 27
-1 32 -1 65 8 13 4 17 -1 17 -19 0 -24 1 -25 35 -14 31 9 36 16 42 49 7 45 11
48 48 39 35 -10 45 -32 15 -32 -17 0 -19 -3 -11 -19 8 -15 6 -22 -12 -35 -21
-15 -21 -16 -4 -30 17 -13 17 -16 2 -45 -8 -17 -13 -31 -9 -31 4 0 1 -7 -6
-15 -7 -8 -26 -15 -43 -15 -17 0 -27 -3 -24 -7 4 -3 1 -13 -5 -21 -10 -11 -8
-13 12 -10 13 1 25 -3 27 -9 3 -9 -6 -13 -29 -13 -18 0 -43 -7 -54 -15 -12 -8
-24 -12 -27 -9 -2 3 -19 7 -36 9 -27 4 -31 1 -31 -19 0 -13 7 -26 15 -30 8 -3
15 -12 15 -21 0 -9 9 -15 25 -15 35 0 31 -15 -7 -31 -41 -16 -48 -26 -48 -65
l0 -32 53 22 c28 11 63 32 76 45 22 22 24 22 40 7 15 -16 15 -18 -3 -28 -10
-6 -27 -19 -37 -29 -11 -11 -26 -19 -34 -19 -8 0 -15 -4 -15 -10 0 -5 9 -10
20 -10 26 0 26 -16 -1 -32 -11 -7 -27 -28 -35 -47 -11 -27 -17 -32 -26 -23
-17 17 -38 15 -38 -3 0 -8 3 -15 8 -15 4 0 13 -4 21 -9 10 -7 9 -16 -10 -50
-18 -30 -21 -43 -12 -49 12 -8 12 -24 -1 -53 -4 -8 -5 -62 -4 -120 3 -92 5
-101 16 -81 10 17 11 27 2 37 -16 20 -2 62 31 89 16 14 29 31 29 38 0 8 5 19
12 26 9 9 8 12 -5 12 -28 0 -19 19 16 33 42 18 108 31 87 17 -8 -5 -24 -10
-35 -10 -18 -1 -66 -28 -54 -31 2 -1 17 -3 32 -5 34 -4 87 -26 87 -36 0 -5 16
-8 36 -8 20 0 33 4 29 10 -3 5 -12 7 -20 3 -9 -3 -15 1 -15 10 0 8 8 17 18 19
10 3 25 20 35 39 15 32 15 34 -3 41 -26 10 -15 45 22 64 29 15 30 34 2 34 -8
0 -12 5 -9 10 3 6 15 10 26 10 34 0 16 25 -20 28 -20 2 -31 -1 -27 -6 3 -6 -8
-20 -26 -33 -17 -13 -40 -33 -52 -45 -21 -21 -116 -40 -116 -23 0 5 6 9 14 9
15 0 26 21 26 50 0 17 34 50 52 50 5 0 8 -9 8 -20 0 -14 7 -20 21 -20 17 0 19
3 10 13 -8 10 -7 17 1 25 8 8 5 9 -11 5 -11 -3 -21 -1 -21 4 0 6 -12 8 -26 5
-15 -3 -25 -1 -22 4 31 69 50 82 80 56 21 -18 41 -6 33 19 -4 11 -2 19 4 19 6
0 11 5 11 11 0 6 -7 8 -16 5 -12 -5 -45 5 -62 19 -1 1 3 14 9 29 10 20 18 25
43 23 29 -2 31 0 28 28 -2 27 1 31 38 43 47 14 64 8 57 -20 -5 -17 -2 -19 21
-13 63 15 81 73 25 77 -108 6 -113 7 -84 19 19 7 22 12 13 21 -23 23 -12 29
16 10 34 -24 61 -18 37 8 -16 18 -14 19 29 25 25 4 43 11 41 16 -3 4 -11 6
-18 4 -7 -2 -23 4 -36 15 -28 24 -17 45 30 55 39 9 32 29 -12 33 -40 4 -60 18
-52 38 3 9 -2 14 -17 14 -36 0 -17 24 26 31 25 5 48 2 66 -7 24 -12 33 -12 68
2 46 18 70 51 46 60 -8 3 -19 18 -25 34 -9 26 0 40 25 40 10 0 3 -29 -8 -33
-7 -2 -10 -7 -6 -11 7 -8 48 23 48 36 0 5 -7 8 -15 8 -27 0 -10 46 30 82 17
15 18 19 5 28 -8 5 -28 10 -44 10 l-29 0 26 26 c14 14 33 24 43 22 9 -2 19 2
21 9 5 15 -36 53 -58 53 -26 0 -34 -19 -13 -34 24 -18 2 -30 -41 -22 -32 6
-34 10 -31 38 5 40 21 49 81 42 40 -5 54 -3 65 10 7 10 9 16 4 14 -9 -3 -14 4
-14 21 0 5 10 11 23 14 12 4 31 13 42 21 17 14 18 17 5 26 -8 5 -25 10 -36 10
-12 0 -27 7 -34 15 -13 15 -13 15 34 29 23 7 -4 56 -30 56 -28 0 -48 -22 -33
-37 14 -14 -2 -23 -29 -16 -28 7 -39 47 -23 87 6 17 7 32 2 34 -5 2 -7 12 -4
22 3 11 0 20 -6 20 -6 0 -11 -7 -11 -15z m33 -265 c-22 -25 -35 -15 -21 15 8
19 14 22 24 14 10 -8 9 -14 -3 -29z m-44 -159 c13 -7 16 -18 13 -40 -4 -29 -7
-31 -48 -31 -40 0 -44 2 -44 24 0 13 3 31 6 40 7 18 46 21 73 7z m-364 -220
c3 -5 1 -12 -5 -16 -5 -3 -10 1 -10 9 0 18 6 21 15 7z m-32 -71 c3 -13 0 -20
-9 -20 -8 0 -14 -5 -14 -12 0 -9 -3 -9 -11 -1 -8 8 -8 17 0 32 15 26 27 27 34
1z m227 -112 c26 -28 25 -36 -6 -48 -36 -14 -51 -13 -36 2 17 17 15 28 -7 28
-22 0 -35 15 -26 30 11 18 54 11 75 -12z m40 -58 c0 -5 -5 -10 -11 -10 -5 0
-7 5 -4 10 3 6 8 10 11 10 2 0 4 -4 4 -10z m-90 -69 c0 -12 -13 -26 -32 -35
-17 -9 -32 -15 -33 -14 -1 2 2 18 7 36 7 25 14 32 33 32 18 0 25 -5 25 -19z
m-132 -86 c-3 -3 -13 -2 -22 1 -14 5 -15 9 -4 15 13 8 36 -6 26 -16z m-48 -35
c0 -5 -4 -10 -10 -10 -5 0 -10 5 -10 10 0 6 5 10 10 10 6 0 10 -4 10 -10z
m110 -110 c0 -5 -4 -10 -10 -10 -5 0 -10 5 -10 10 0 6 5 10 10 10 6 0 10 -4
10 -10z m-81 -266 c-10 -13 -49 -20 -49 -10 0 2 -2 11 -5 18 -4 11 3 13 30 10
29 -3 33 -7 24 -18z m111 -34 c-9 -17 -30 -28 -30 -16 0 2 -3 11 -6 20 -5 12
0 16 20 16 24 0 25 -2 16 -20z"/>
<path d="M2490 2935 c-11 -13 -8 -15 13 -15 19 0 25 4 21 15 -4 8 -10 15 -14
15 -4 0 -13 -7 -20 -15z"/>
<path d="M1200 2919 c0 -5 9 -9 20 -9 11 0 20 2 20 4 0 2 -9 6 -20 9 -11 3
-20 1 -20 -4z"/>
<path d="M1335 2910 c3 -5 10 -10 16 -10 5 0 9 5 9 10 0 6 -7 10 -16 10 -8 0
-12 -4 -9 -10z"/>
<path d="M2620 2880 c0 -5 4 -10 9 -10 6 0 13 5 16 10 3 6 -1 10 -9 10 -9 0
-16 -4 -16 -10z"/>
<path d="M9203 2855 c0 -22 2 -30 4 -17 2 12 2 30 0 40 -3 9 -5 -1 -4 -23z"/>
<path d="M5044 2810 c0 -54 5 -60 23 -32 8 14 20 18 42 14 28 -4 31 -2 31 21
0 31 -13 40 -60 44 l-36 4 0 -51z"/>
<path d="M30 2830 c0 -5 12 -10 26 -10 14 0 34 -5 45 -11 11 -5 29 -7 41 -3
19 6 20 7 4 16 -9 5 -25 7 -35 3 -11 -3 -22 -1 -26 5 -8 13 -55 13 -55 0z"/>
<path d="M10193 2775 c-4 -12 2 -24 18 -36 38 -29 51 -24 31 13 -21 38 -39 46
-49 23z"/>
<path d="M5623 2773 l-23 -4 26 -23 c20 -17 25 -28 20 -44 -6 -19 -15 -22 -55
-22 -26 0 -51 4 -56 9 -6 6 -25 6 -45 1 -23 -5 -27 -8 -13 -9 12 -1 24 -5 27
-10 3 -5 33 -7 66 -5 106 6 173 -41 221 -158 13 -33 16 -34 40 -12 17 15 17
18 2 41 -15 23 -15 25 6 39 29 21 26 45 -9 73 -16 13 -28 27 -25 31 6 10 -33
20 -51 13 -8 -3 -14 -9 -14 -14 0 -12 -37 -11 -45 1 -3 5 -1 19 6 31 10 19 7
25 -17 45 -16 13 -31 23 -34 22 -3 0 -15 -3 -27 -5z"/>
<path d="M5960 2760 c0 -5 5 -10 10 -10 6 0 10 5 10 10 0 6 -4 10 -10 10 -5 0
-10 -4 -10 -10z"/>
<path d="M6258 2763 c7 -3 16 -2 19 1 4 3 -2 6 -13 5 -11 0 -14 -3 -6 -6z"/>
<path d="M5905 2750 c3 -5 12 -10 20 -10 8 0 17 5 20 10 4 6 -5 10 -20 10 -15
0 -24 -4 -20 -10z"/>
<path d="M6137 2733 c-11 -11 -8 -21 10 -27 15 -6 32 8 33 27 0 9 -34 9 -43 0z"/>
<path d="M5035 2718 c-12 -39 -15 -90 -5 -107 5 -11 11 -37 12 -58 3 -35 12
-52 29 -53 4 0 5 26 3 57 -3 39 0 59 8 65 20 12 38 9 38 -7 0 -8 9 -15 20 -15
15 0 20 7 20 25 0 17 6 25 17 25 9 0 13 3 9 7 -4 4 -28 7 -54 8 -43 0 -48 3
-62 32 -16 34 -28 41 -35 21z"/>
<path d="M136 2688 c3 -4 12 -8 20 -8 8 0 14 4 14 8 0 4 -9 8 -19 8 -11 0 -17
-4 -15 -8z"/>
<path d="M2815 2690 c-3 -5 3 -10 15 -10 12 0 18 5 15 10 -3 6 -10 10 -15 10
-5 0 -12 -4 -15 -10z"/>
<path d="M6385 2640 c-4 -11 0 -29 9 -42 20 -29 21 -48 1 -22 -15 19 -15 19
-30 0 -8 -11 -15 -29 -15 -40 -1 -20 -2 -20 -14 3 -10 17 -23 24 -53 26 -22 2
-49 9 -60 16 -17 10 -27 9 -59 -3 -39 -16 -57 -38 -30 -38 8 0 30 -9 48 -19
25 -15 45 -18 85 -14 33 3 50 9 46 16 -3 6 -1 7 5 3 6 -4 9 -13 5 -21 -3 -11
2 -15 18 -15 27 1 59 21 59 38 0 6 10 12 23 14 16 2 23 11 25 31 2 16 9 27 18
27 9 0 39 8 67 18 46 15 49 17 24 20 -16 2 -34 -2 -42 -8 -11 -9 -17 -7 -27 9
-18 30 -94 30 -103 1z"/>
<path d="M80 2625 c0 -6 20 -9 51 -6 28 1 47 6 44 10 -11 10 -95 7 -95 -4z"/>
<path d="M5880 2630 c-12 -8 -9 -10 13 -10 15 0 27 5 27 10 0 13 -20 13 -40 0z"/>
<path d="M6070 2620 c-8 -5 -34 -6 -57 -3 -24 3 -43 2 -43 -3 0 -14 13 -30 30
-37 8 -4 22 -12 30 -18 23 -16 101 7 107 32 3 10 9 19 14 19 5 0 9 4 9 8 0 11
-73 13 -90 2z"/>
<path d="M10303 2592 c10 -10 17 -23 17 -28 0 -13 45 -54 59 -54 15 0 14 12
-4 36 -8 10 -15 26 -15 35 0 18 -20 29 -52 29 -20 0 -20 -1 -5 -18z"/>
<path d="M6505 2590 c3 -5 8 -10 11 -10 2 0 4 5 4 10 0 6 -5 10 -11 10 -5 0
-7 -4 -4 -10z"/>
<path d="M6613 2555 c-8 -23 3 -30 53 -31 45 -1 56 10 32 34 -18 18 -77 15
-85 -3z"/>
<path d="M57 2553 c-4 -3 -7 -12 -7 -20 0 -11 4 -11 19 -1 11 7 17 16 15 20
-6 10 -18 10 -27 1z"/>
<path d="M3405 2553 c32 -8 39 -20 16 -28 -35 -11 -13 -25 40 -25 38 0 49 4
49 16 0 18 -59 44 -97 43 -21 -1 -23 -3 -8 -6z"/>
<path d="M6485 2548 c-11 -6 -21 -12 -23 -14 -2 -1 6 -13 18 -27 29 -33 52
-25 48 16 -3 35 -14 41 -43 25z"/>
<path d="M6722 2528 c5 -15 48 -18 48 -3 0 6 -11 11 -26 13 -18 3 -25 0 -22
-10z"/>
<path d="M9460 2494 c0 -14 4 -23 10 -19 6 3 10 15 10 26 0 10 -4 19 -10 19
-5 0 -10 -12 -10 -26z"/>
<path d="M6680 2500 c0 -5 4 -10 9 -10 6 0 13 5 16 10 3 6 -1 10 -9 10 -9 0
-16 -4 -16 -10z"/>
<path d="M2816 2485 c-11 -8 -17 -17 -14 -20 10 -11 58 7 58 21 0 18 -20 17
-44 -1z"/>
<path d="M5026 2483 c-10 -11 -7 -51 5 -55 7 -2 13 -40 16 -96 4 -78 3 -92
-10 -92 -26 0 -30 -20 -5 -29 13 -6 17 -10 11 -10 -7 -1 -13 -5 -13 -11 0 -5
6 -7 14 -4 20 8 30 -28 12 -42 -19 -13 -21 -41 -4 -46 7 -3 12 -28 12 -68 1
-41 5 -65 13 -67 10 -4 10 -10 2 -24 -11 -21 -3 -42 13 -37 6 2 12 33 13 69 1
45 9 80 25 112 26 52 24 51 51 37 11 -7 19 -7 19 -1 0 5 2 16 5 24 5 10 -1 13
-25 9 -35 -5 -41 13 -7 24 48 15 43 44 -8 44 -37 0 -51 14 -47 46 2 15 -4 24
-20 28 -22 7 -21 8 12 23 19 8 37 17 40 20 9 8 -32 32 -46 26 -8 -3 -14 1 -14
10 0 9 11 17 28 20 26 4 26 4 5 12 -25 8 -31 30 -10 38 7 3 4 6 -6 6 -11 1
-31 10 -47 21 -15 11 -30 17 -34 13z"/>
<path d="M3615 2470 c-18 -8 -17 -9 8 -9 16 -1 26 3 22 9 -3 6 -7 10 -8 9 -1
0 -11 -4 -22 -9z"/>
<path d="M5580 2470 c0 -5 7 -10 16 -10 8 0 12 5 9 10 -3 6 -10 10 -16 10 -5
0 -9 -4 -9 -10z"/>
<path d="M6074 2460 c-5 -4 -20 -10 -34 -13 -19 -3 -15 -5 12 -6 20 0 39 3 43
8 7 13 -10 22 -21 11z"/>
<path d="M5785 2450 c-3 -5 -1 -10 4 -10 6 0 11 5 11 10 0 6 -2 10 -4 10 -3 0
-8 -4 -11 -10z"/>
<path d="M3145 2435 c16 -7 36 -10 44 -7 11 4 11 7 -5 13 -10 4 -30 8 -44 7
-24 0 -24 0 5 -13z"/>
<path d="M9440 2430 c0 -5 7 -10 15 -10 8 0 15 5 15 10 0 6 -7 10 -15 10 -8 0
-15 -4 -15 -10z"/>
<path d="M6110 2405 c0 -13 21 -25 46 -25 24 0 15 15 -16 27 -24 9 -30 9 -30
-2z"/>
<path d="M5515 2390 c-3 -5 -1 -10 4 -10 6 0 11 5 11 10 0 6 -2 10 -4 10 -3 0
-8 -4 -11 -10z"/>
<path d="M5780 2371 c0 -11 5 -23 11 -26 6 -4 8 -13 5 -21 -9 -24 13 -25 44
-3 16 13 30 26 30 29 0 3 -17 12 -37 20 -21 8 -41 16 -45 18 -5 2 -8 -5 -8
-17z"/>
<path d="M5700 2360 c-18 -11 -4 -42 17 -38 10 2 19 10 21 19 4 19 -19 31 -38
19z"/>
<path d="M6234 2351 c4 -6 2 -19 -5 -27 -16 -19 2 -39 28 -30 17 7 17 8 1 17
-9 5 -15 16 -12 23 3 8 0 17 -7 22 -8 4 -10 3 -5 -5z"/>
<path d="M9571 2344 c0 -11 3 -14 6 -6 3 7 2 16 -1 19 -3 4 -6 -2 -5 -13z"/>
<path d="M5963 2319 c0 -25 4 -29 21 -27 13 2 21 10 21 22 0 10 -9 22 -21 26
-18 7 -21 4 -21 -21z"/>
<path d="M9662 2328 c-7 -7 -11 -21 -11 -32 1 -20 1 -20 6 -1 3 11 13 25 22
32 9 7 11 13 6 13 -6 0 -16 -5 -23 -12z"/>
<path d="M1134 2315 c-18 -13 -15 -14 30 -15 42 0 47 2 36 15 -16 19 -41 19
-66 0z"/>
<path d="M9615 2317 c-4 -10 -5 -21 -1 -24 10 -10 18 4 13 24 -4 17 -4 17 -12
0z"/>
<path d="M5710 2296 c0 -9 5 -16 10 -16 6 0 10 4 10 9 0 6 -4 13 -10 16 -5 3
-10 -1 -10 -9z"/>
<path d="M5775 2270 c-10 -17 12 -37 25 -24 8 8 6 15 -4 23 -10 9 -16 9 -21 1z"/>
<path d="M10785 2240 c-6 -10 46 -40 70 -40 22 0 19 27 -4 35 -38 12 -61 14
-66 5z"/>
<path d="M400 2199 c0 -5 5 -7 10 -4 6 3 10 8 10 11 0 2 -4 4 -10 4 -5 0 -10
-5 -10 -11z"/>
<path d="M5635 2200 c-4 -6 5 -10 20 -10 15 0 24 4 20 10 -3 6 -12 10 -20 10
-8 0 -17 -4 -20 -10z"/>
<path d="M6087 2194 c-11 -12 3 -24 29 -24 27 0 32 15 8 24 -20 8 -29 8 -37 0z"/>
<path d="M6038 2173 c7 -3 16 -2 19 1 4 3 -2 6 -13 5 -11 0 -14 -3 -6 -6z"/>
<path d="M5325 2160 c4 -6 11 -8 16 -5 14 9 11 15 -7 15 -8 0 -12 -5 -9 -10z"/>
<path d="M5430 2136 c0 -16 5 -26 15 -26 8 0 15 6 15 14 0 7 -7 19 -15 26 -13
11 -15 8 -15 -14z"/>
<path d="M5657 2144 c-4 -4 -2 -13 3 -20 13 -14 52 -6 47 10 -4 13 -40 20 -50
10z"/>
<path d="M0 2100 c0 -5 7 -10 16 -10 8 0 12 5 9 10 -3 6 -10 10 -16 10 -5 0
-9 -4 -9 -10z"/>
<path d="M480 2100 c0 -5 4 -10 9 -10 6 0 13 5 16 10 3 6 -1 10 -9 10 -9 0
-16 -4 -16 -10z"/>
<path d="M5345 2100 c-3 -5 -1 -10 4 -10 6 0 11 5 11 10 0 6 -2 10 -4 10 -3 0
-8 -4 -11 -10z"/>
<path d="M5222 2092 c-13 -4 -22 -11 -20 -17 2 -5 7 -9 11 -7 5 1 24 -2 44 -7
29 -8 34 -8 29 5 -3 9 -6 20 -6 25 0 10 -23 10 -58 1z"/>
<path d="M5655 2081 c-25 -6 -21 -8 28 -12 62 -4 77 -2 77 12 0 10 -60 10
-105 0z"/>
<path d="M0 2055 c0 -28 24 -34 34 -9 8 20 -1 34 -20 34 -8 0 -14 -10 -14 -25z"/>
<path d="M95 2070 c-3 -5 -15 -10 -26 -10 -26 0 -24 -27 3 -36 16 -5 27 -1 40
16 10 12 18 26 18 31 0 12 -27 11 -35 -1z"/>
<path d="M178 2043 c7 -3 16 -2 19 1 4 3 -2 6 -13 5 -11 0 -14 -3 -6 -6z"/>
<path d="M2 1988 c2 -27 8 -33 28 -35 l25 -2 -25 8 c-23 8 -23 9 10 11 31 1
33 2 13 10 -13 5 -23 16 -23 25 0 8 -7 15 -16 15 -11 0 -14 -8 -12 -32z"/>
<path d="M5377 2001 c-3 -11 -1 -24 5 -27 5 -3 7 -12 4 -19 -2 -7 4 -15 16
-18 11 -3 17 -10 13 -16 -8 -14 25 -14 45 -1 12 8 9 12 -17 22 -22 8 -37 23
-46 47 -12 30 -15 32 -20 12z"/>
<path d="M3924 1965 c-7 -18 3 -35 21 -35 18 0 26 15 19 34 -8 20 -33 21 -40
1z"/>
<path d="M2518 1963 c7 -3 16 -2 19 1 4 3 -2 6 -13 5 -11 0 -14 -3 -6 -6z"/>
<path d="M2138 1943 c7 -3 16 -2 19 1 4 3 -2 6 -13 5 -11 0 -14 -3 -6 -6z"/>
<path d="M5155 1920 c3 -5 10 -10 16 -10 5 0 9 5 9 10 0 6 -7 10 -16 10 -8 0
-12 -4 -9 -10z"/>
<path d="M2480 1909 c0 -5 5 -7 10 -4 6 3 10 8 10 11 0 2 -4 4 -10 4 -5 0 -10
-5 -10 -11z"/>
<path d="M5533 1913 c6 -9 22 -13 122 -30 17 -2 43 2 59 11 l29 15 -49 -2
c-27 0 -76 3 -108 8 -40 5 -57 5 -53 -2z"/>
<path d="M5460 1874 c0 -20 29 -49 38 -39 4 4 1 10 -5 12 -19 7 -16 23 5 23
14 0 15 2 2 10 -22 14 -40 12 -40 -6z"/>
<path d="M5548 1883 c7 -3 16 -2 19 1 4 3 -2 6 -13 5 -11 0 -14 -3 -6 -6z"/>
<path d="M5375 1870 c3 -5 10 -10 16 -10 5 0 9 5 9 10 0 6 -7 10 -16 10 -8 0
-12 -4 -9 -10z"/>
<path d="M2431 1861 c-16 -10 -6 -31 15 -31 8 0 14 9 14 20 0 22 -7 25 -29 11z"/>
<path d="M4600 1862 c0 -14 11 -21 26 -15 8 3 11 9 8 14 -7 11 -34 12 -34 1z"/>
<path d="M370 1836 c0 -7 -7 -19 -15 -26 -8 -7 -13 -16 -10 -20 9 -14 44 1 50
21 4 10 13 19 21 19 8 0 14 5 14 10 0 6 -13 10 -30 10 -19 0 -30 -5 -30 -14z"/>
<path d="M5833 1844 c-7 -3 -9 -12 -6 -20 4 -10 -4 -14 -30 -14 -55 0 -53 -17
4 -24 27 -4 47 -11 44 -16 -9 -14 30 -21 59 -10 15 5 39 10 54 10 24 1 22 3
-13 15 -22 8 -53 15 -70 16 l-30 2 28 4 c31 5 37 23 7 23 -11 0 -20 5 -20 10
0 11 -7 12 -27 4z"/>
<path d="M5380 1820 c0 -5 9 -10 20 -10 11 0 20 5 20 10 0 6 -9 10 -20 10 -11
0 -20 -4 -20 -10z"/>
<path d="M2225 1810 c3 -5 11 -10 16 -10 6 0 7 5 4 10 -3 6 -11 10 -16 10 -6
0 -7 -4 -4 -10z"/>
<path d="M5200 1809 c0 -25 34 -43 88 -45 37 -2 61 -9 68 -19 13 -17 34 -20
34 -4 0 7 10 9 26 5 17 -5 23 -3 19 4 -3 5 -15 10 -26 10 -11 0 -22 7 -25 15
-4 10 -14 13 -28 9 -14 -3 -38 3 -60 15 -39 22 -96 28 -96 10z"/>
<path d="M5608 1813 c7 -3 16 -2 19 1 4 3 -2 6 -13 5 -11 0 -14 -3 -6 -6z"/>
<path d="M5115 1790 c3 -5 8 -10 11 -10 2 0 4 5 4 10 0 6 -5 10 -11 10 -5 0
-7 -4 -4 -10z"/>
<path d="M5093 1754 c-3 -8 0 -26 7 -39 7 -13 10 -31 7 -39 -4 -10 1 -20 13
-26 25 -13 30 -13 30 5 0 9 9 15 23 15 20 1 20 2 5 11 -24 13 -23 29 1 29 37
0 31 18 -12 39 -52 25 -66 26 -74 5z"/>
<path d="M5452 1748 c7 -19 100 -29 117 -12 18 16 7 31 -11 17 -8 -6 -22 -7
-33 -2 -32 13 -77 11 -73 -3z"/>
<path d="M3685 1740 c-3 -5 1 -10 9 -10 9 0 16 5 16 10 0 6 -4 10 -9 10 -6 0
-13 -4 -16 -10z"/>
<path d="M6356 1725 c-3 -9 0 -15 9 -15 16 0 20 16 6 24 -5 3 -11 -1 -15 -9z"/>
<path d="M305 1699 c-10 -15 -2 -19 24 -12 17 4 19 8 9 14 -18 12 -26 11 -33
-2z"/>
<path d="M2330 1695 c-7 -8 -19 -15 -26 -15 -30 0 -12 -16 38 -34 50 -17 52
-17 65 0 16 23 17 43 1 48 -46 14 -67 15 -78 1z"/>
<path d="M5122 1574 c-1 -26 2 -52 6 -58 4 -6 7 -31 8 -56 1 -50 13 -132 20
-139 3 -3 7 5 11 17 3 12 12 22 19 22 19 0 18 10 -2 25 -15 11 -15 14 7 33 20
20 21 22 4 22 -17 0 -17 1 0 20 10 11 13 20 7 20 -6 0 -14 -5 -18 -11 -15 -25
-26 21 -11 50 12 25 12 30 -5 50 -10 13 -18 29 -18 37 0 8 -6 14 -13 14 -8 0
-13 -16 -15 -46z"/>
<path d="M2352 1586 c-25 -12 -24 -29 2 -34 20 -4 46 15 46 34 0 16 -16 16
-48 0z"/>
<path d="M180 1580 c0 -5 4 -10 9 -10 6 0 13 5 16 10 3 6 -1 10 -9 10 -9 0
-16 -4 -16 -10z"/>
<path d="M7985 1580 c3 -5 8 -10 11 -10 2 0 4 5 4 10 0 6 -5 10 -11 10 -5 0
-7 -4 -4 -10z"/>
<path d="M7840 1570 c0 -5 4 -10 9 -10 6 0 13 5 16 10 3 6 -1 10 -9 10 -9 0
-16 -4 -16 -10z"/>
<path d="M7903 1535 c-9 -21 -8 -27 7 -35 38 -20 77 23 44 47 -26 19 -38 16
-51 -12z"/>
<path d="M1865 1510 c3 -5 13 -10 21 -10 8 0 14 5 14 10 0 6 -9 10 -21 10 -11
0 -17 -4 -14 -10z"/>
<path d="M10920 1512 c0 -11 41 -34 48 -27 4 4 -2 13 -12 21 -22 15 -36 18
-36 6z"/>
<path d="M1705 1500 c-4 -6 7 -10 27 -9 27 0 30 2 13 9 -27 12 -33 12 -40 0z"/>
<path d="M2368 1455 c-3 -15 1 -30 9 -37 10 -8 13 -22 9 -41 -4 -20 -2 -27 7
-24 7 2 12 19 11 39 -2 75 -26 117 -36 63z"/>
<path d="M2605 1470 c3 -5 12 -10 20 -10 8 0 17 5 20 10 4 6 -5 10 -20 10 -15
0 -24 -4 -20 -10z"/>
<path d="M340 1459 c0 -5 5 -7 10 -4 6 3 10 8 10 11 0 2 -4 4 -10 4 -5 0 -10
-5 -10 -11z"/>
<path d="M1189 1430 c-10 -7 -7 -11 14 -19 34 -13 37 -13 37 -3 0 14 -37 30
-51 22z"/>
<path d="M10985 1420 c3 -5 11 -10 16 -10 6 0 7 5 4 10 -3 6 -11 10 -16 10 -6
0 -7 -4 -4 -10z"/>
<path d="M1390 1406 c0 -2 11 -6 25 -8 14 -3 25 -1 25 3 0 5 -11 9 -25 9 -14
0 -25 -2 -25 -4z"/>
<path d="M10980 1390 c-14 -4 -19 -8 -12 -9 6 -1 12 -8 12 -16 0 -12 7 -14 28
-9 34 9 34 8 26 28 -7 17 -15 18 -54 6z"/>
<path d="M1735 1380 c3 -5 13 -10 21 -10 8 0 12 5 9 10 -3 6 -13 10 -21 10 -8
0 -12 -4 -9 -10z"/>
<path d="M2742 1371 c4 -13 18 -16 19 -4 0 4 -5 9 -11 12 -7 2 -11 -2 -8 -8z"/>
<path d="M808 1363 c7 -3 16 -2 19 1 4 3 -2 6 -13 5 -11 0 -14 -3 -6 -6z"/>
<path d="M2780 1359 c0 -5 5 -7 10 -4 6 3 10 8 10 11 0 2 -4 4 -10 4 -5 0 -10
-5 -10 -11z"/>
<path d="M708 1333 c7 -3 16 -2 19 1 4 3 -2 6 -13 5 -11 0 -14 -3 -6 -6z"/>
<path d="M8040 1330 c0 -5 5 -10 11 -10 5 0 7 5 4 10 -3 6 -8 10 -11 10 -2 0
-4 -4 -4 -10z"/>
<path d="M170 1299 c0 -5 -4 -8 -9 -5 -5 3 -12 -1 -15 -10 -9 -24 -8 -25 22
-19 26 6 26 6 8 -9 -16 -13 -47 -19 -82 -15 -4 0 -12 -10 -18 -22 -11 -22 -26
-33 -58 -43 -15 -4 -18 -17 -18 -76 l0 -70 29 0 c17 0 33 -4 36 -10 3 -5 15
-10 26 -10 10 0 19 -4 19 -10 0 -15 19 -12 36 4 17 17 3 30 -24 22 -9 -3 -28
3 -41 13 -23 18 -23 18 -3 23 16 4 19 2 15 -10 -5 -13 -1 -14 28 -8 38 7 61
26 42 33 -16 6 8 33 29 33 8 1 6 6 -6 15 -20 15 -20 15 0 15 17 0 20 5 16 30
-3 18 0 30 7 30 6 0 11 8 11 18 0 9 6 28 13 42 8 14 12 31 9 38 -5 15 -72 16
-72 1z m-50 -84 c0 -8 -7 -15 -15 -15 -16 0 -20 12 -8 23 11 12 23 8 23 -8z
m85 5 c-3 -5 -10 -10 -16 -10 -5 0 -9 5 -9 10 0 6 7 10 16 10 8 0 12 -4 9 -10z"/>
<path d="M5159 1300 c-1 -11 -2 -87 -1 -112 1 -17 8 -28 17 -28 11 0 14 12 11
61 -3 34 -9 66 -15 72 -6 6 -11 9 -12 7z"/>
<path d="M420 1269 c0 -11 57 -12 63 -1 3 4 -10 8 -29 9 -19 1 -34 -3 -34 -8z"/>
<path d="M808 1273 c7 -3 16 -2 19 1 4 3 -2 6 -13 5 -11 0 -14 -3 -6 -6z"/>
<path d="M230 1229 c0 -5 5 -7 10 -4 6 3 10 8 10 11 0 2 -4 4 -10 4 -5 0 -10
-5 -10 -11z"/>
<path d="M1360 1226 c0 -2 7 -7 16 -10 8 -3 12 -2 9 4 -6 10 -25 14 -25 6z"/>
<path d="M2848 1223 c6 -2 18 -2 25 0 6 3 1 5 -13 5 -14 0 -19 -2 -12 -5z"/>
<path d="M8110 1220 c0 -5 5 -10 11 -10 5 0 7 5 4 10 -3 6 -8 10 -11 10 -2 0
-4 -4 -4 -10z"/>
<path d="M11146 1193 c-11 -11 -6 -23 9 -23 8 0 15 4 15 9 0 13 -16 22 -24 14z"/>
<path d="M1400 1152 c-20 -9 -23 -31 -5 -38 17 -7 49 21 40 36 -7 11 -13 12
-35 2z"/>
<path d="M1425 1090 c3 -5 8 -10 11 -10 2 0 4 5 4 10 0 6 -5 10 -11 10 -5 0
-7 -4 -4 -10z"/>
<path d="M5170 1090 c0 -5 5 -10 11 -10 5 0 7 5 4 10 -3 6 -8 10 -11 10 -2 0
-4 -4 -4 -10z"/>
<path d="M1515 1038 c11 -6 23 -16 28 -22 5 -8 10 -6 16 4 12 18 -4 30 -39 30
-24 -1 -24 -1 -5 -12z"/>
<path d="M5196 1033 c-6 -14 -5 -15 5 -6 7 7 10 15 7 18 -3 3 -9 -2 -12 -12z"/>
<path d="M5180 1006 c0 -2 6 -9 13 -15 10 -8 14 -7 14 4 0 8 -6 15 -14 15 -7
0 -13 -2 -13 -4z"/>
<path d="M2160 964 c-14 -8 -17 -13 -7 -10 10 3 25 6 33 6 8 0 14 5 14 10 0
14 -10 12 -40 -6z"/>
<path d="M5196 961 c-4 -6 -3 -18 2 -27 8 -15 10 -14 16 2 8 20 -8 42 -18 25z"/>
<path d="M13 943 c-22 -8 -14 -20 11 -16 13 3 33 0 43 -6 11 -5 30 -7 43 -4
20 5 18 8 -21 19 -47 15 -57 15 -76 7z"/>
<path d="M40 888 c-22 -24 -10 -39 15 -18 8 7 27 9 42 6 15 -3 35 -1 43 4 11
8 6 10 -19 8 -20 -2 -36 3 -39 10 -6 18 -19 15 -42 -10z"/>
<path d="M5195 859 c0 -31 3 -39 18 -39 14 0 17 5 11 23 -4 12 -12 29 -18 38
-9 14 -11 10 -11 -22z"/>
<path d="M2312 828 c-12 -43 0 -72 29 -77 23 -3 23 -2 7 16 -15 16 -15 22 -4
44 7 13 11 30 8 37 -8 24 -32 12 -40 -20z"/>
<path d="M11370 832 c0 -21 38 -95 65 -126 14 -16 25 -35 25 -41 0 -7 9 -15
20 -18 25 -7 26 13 1 44 -10 13 -19 28 -19 32 0 5 -13 23 -29 40 -16 18 -36
43 -46 57 -9 13 -17 19 -17 12z"/>
<path d="M35 820 c3 -5 13 -10 21 -10 8 0 14 5 14 10 0 6 -9 10 -21 10 -11 0
-17 -4 -14 -10z"/>
<path d="M5226 811 c-22 -9 -30 -39 -14 -58 17 -21 25 -15 22 14 -1 15 2 33 8
40 12 14 11 15 -16 4z"/>
<path d="M2808 753 c6 -2 18 -2 25 0 6 3 1 5 -13 5 -14 0 -19 -2 -12 -5z"/>
<path d="M2755 730 c-3 -5 1 -10 9 -10 9 0 16 5 16 10 0 6 -4 10 -9 10 -6 0
-13 -4 -16 -10z"/>
<path d="M2895 733 c-16 -3 -36 -10 -44 -16 -11 -10 -9 -13 10 -18 40 -12 53
-9 84 16 l30 25 -25 -2 c-14 0 -38 -3 -55 -5z"/>
<path d="M2355 720 c-3 -5 1 -10 10 -10 9 0 13 5 10 10 -3 6 -8 10 -10 10 -2
0 -7 -4 -10 -10z"/>
<path d="M2717 693 c-4 -3 -28 -5 -55 -4 -53 1 -92 -23 -92 -59 0 -17 5 -19
33 -13 54 11 98 33 91 45 -5 7 -2 9 7 6 19 -7 62 10 54 22 -7 11 -28 13 -38 3z"/>
<path d="M2965 690 c-19 -8 -19 -9 3 -9 12 -1 22 4 22 9 0 6 -1 10 -2 9 -2 0
-12 -4 -23 -9z"/>
<path d="M2242 660 c0 -16 2 -30 6 -30 15 0 27 16 29 38 2 16 -3 22 -16 22
-13 0 -18 -8 -19 -30z"/>
<path d="M3286 665 c-3 -8 -20 -21 -38 -29 -27 -12 -29 -15 -11 -15 12 -1 31
9 43 21 16 17 23 19 32 10 14 -14 64 -16 72 -3 3 5 -14 14 -39 20 -55 14 -52
14 -59 -4z"/>
<path d="M5225 671 c-7 -12 12 -24 25 -16 11 7 4 25 -10 25 -5 0 -11 -4 -15
-9z"/>
<path d="M1250 616 c0 -9 5 -16 10 -16 6 0 10 4 10 9 0 6 -4 13 -10 16 -5 3
-10 -1 -10 -9z"/>
<path d="M5250 605 c0 -8 8 -15 18 -15 13 -1 11 -4 -8 -15 l-25 -14 27 -1 c34
0 42 13 26 40 -15 23 -38 27 -38 5z"/>
<path d="M3048 603 c7 -3 16 -2 19 1 4 3 -2 6 -13 5 -11 0 -14 -3 -6 -6z"/>
<path d="M11497 592 c-3 -4 3 -24 13 -45 10 -20 16 -37 12 -37 -3 0 -1 -5 5
-11 6 -6 9 -18 6 -25 -4 -10 0 -12 12 -8 14 6 16 3 11 -13 -4 -13 6 -37 34
-76 22 -32 47 -72 56 -90 9 -18 31 -44 48 -59 17 -15 27 -27 21 -28 -5 0 -4
-4 4 -9 10 -6 10 -13 2 -29 -9 -17 -7 -23 14 -36 14 -9 27 -30 30 -50 7 -32
44 -76 65 -76 15 0 12 36 -5 50 -8 7 -15 19 -15 26 0 8 -5 14 -11 14 -6 0 -9
9 -6 19 3 12 -1 22 -10 25 -8 3 -12 10 -8 15 3 5 1 12 -4 15 -4 3 -11 20 -15
37 -3 19 -21 44 -41 62 -46 39 -78 93 -72 118 5 20 -43 94 -86 132 -11 9 -17
17 -12 17 4 0 2 7 -5 15 -7 8 -9 15 -6 15 4 0 2 9 -4 20 -11 21 -25 26 -33 12z"/>
<path d="M2336 569 c3 -6 2 -14 -3 -18 -5 -3 -17 -21 -26 -38 -12 -26 -13 -33
-2 -33 7 0 21 -3 30 -7 14 -5 16 -2 10 18 -4 13 -13 27 -19 31 -6 4 3 8 21 8
40 0 48 12 22 33 -22 19 -44 23 -33 6z"/>
<path d="M2193 563 c9 -2 23 -2 30 0 6 3 -1 5 -18 5 -16 0 -22 -2 -12 -5z"/>
<path d="M8332 543 c2 -10 14 -20 28 -22 25 -3 25 -3 6 18 -23 26 -39 27 -34
4z"/>
<path d="M2218 533 c7 -3 16 -2 19 1 4 3 -2 6 -13 5 -11 0 -14 -3 -6 -6z"/>
<path d="M2500 496 c0 -9 7 -16 16 -16 9 0 14 5 12 12 -6 18 -28 21 -28 4z"/>
<path d="M2203 493 c-21 -7 -15 -33 7 -33 11 0 20 6 20 14 0 18 -11 25 -27 19z"/>
<path d="M5245 458 c8 -49 12 -58 26 -58 15 0 49 39 39 45 -6 4 -7 17 -4 31 6
22 3 24 -31 24 l-37 0 7 -42z"/>
<path d="M8350 490 c0 -5 7 -10 15 -10 8 0 15 5 15 10 0 6 -7 10 -15 10 -8 0
-15 -4 -15 -10z"/>
<path d="M355 479 c-4 -6 -5 -13 -2 -16 7 -7 27 6 27 18 0 12 -17 12 -25 -2z"/>
<path d="M2375 481 c-17 -7 -17 -8 8 -13 19 -4 27 -1 27 8 0 15 -6 16 -35 5z"/>
<path d="M314 461 c-5 -5 -18 -11 -29 -14 -13 -3 -9 -5 12 -6 17 0 34 3 38 8
7 13 -10 22 -21 12z"/>
<path d="M808 463 c7 -3 16 -2 19 1 4 3 -2 6 -13 5 -11 0 -14 -3 -6 -6z"/>
<path d="M2318 448 c5 -5 16 -8 23 -6 8 3 3 7 -10 11 -17 4 -21 3 -13 -5z"/>
<path d="M2678 453 c7 -3 16 -2 19 1 4 3 -2 6 -13 5 -11 0 -14 -3 -6 -6z"/>
<path d="M2223 438 c1 -6 -9 -14 -23 -17 -22 -6 -20 -8 23 -25 61 -23 98 -13
48 13 -32 17 -33 19 -15 29 17 10 17 11 -8 12 -16 0 -27 -5 -25 -12z"/>
<path d="M835 433 c-71 -15 -71 -15 -50 -23 21 -8 101 -4 116 6 5 3 7 10 4 15
-6 9 -33 10 -70 2z"/>
<path d="M2315 420 c-3 -5 -2 -10 4 -10 5 0 13 5 16 10 3 6 2 10 -4 10 -5 0
-13 -4 -16 -10z"/>
<path d="M6899 400 c-1 -5 -2 -16 -3 -22 -2 -20 -19 -28 -44 -21 -21 5 -23 3
-14 -13 6 -11 13 -27 16 -36 6 -21 36 -24 36 -4 0 8 9 18 21 21 14 5 18 12 14
23 -12 30 -10 35 15 49 l25 13 -32 0 c-18 0 -34 -4 -34 -10z"/>
<path d="M985 390 c3 -5 12 -7 20 -3 21 7 19 13 -6 13 -11 0 -18 -4 -14 -10z"/>
<path d="M563 358 c4 -12 0 -15 -16 -11 -18 4 -19 3 -7 -6 8 -6 23 -11 32 -11
18 0 34 -18 25 -27 -3 -2 -23 -11 -44 -18 l-38 -14 45 -1 c26 0 64 9 92 23 44
20 61 37 38 37 -5 0 -10 5 -10 10 0 6 11 10 25 10 14 0 25 5 25 11 0 9 -15 9
-125 -2 -5 -1 -19 2 -29 7 -15 6 -18 4 -13 -8z"/>
<path d="M1248 363 c12 -2 32 -2 45 0 12 2 2 4 -23 4 -25 0 -35 -2 -22 -4z"/>
<path d="M2259 368 c-9 -39 -7 -48 10 -48 14 0 18 5 14 20 -5 17 -22 37 -24
28z"/>
<path d="M9060 339 c0 -5 5 -7 10 -4 6 3 10 8 10 11 0 2 -4 4 -10 4 -5 0 -10
-5 -10 -11z"/>
<path d="M9236 341 c-37 -8 -44 -26 -14 -35 32 -8 32 -8 57 13 18 16 19 20 5
25 -8 3 -16 5 -17 5 -1 -1 -15 -4 -31 -8z"/>
<path d="M11985 340 c3 -5 8 -10 11 -10 2 0 4 5 4 10 0 6 -5 10 -11 10 -5 0
-7 -4 -4 -10z"/>
<path d="M6955 330 c-3 -5 1 -10 10 -10 9 0 13 5 10 10 -3 6 -8 10 -10 10 -2
0 -7 -4 -10 -10z"/>
<path d="M4235 300 c3 -5 12 -10 20 -10 8 0 17 5 20 10 4 6 -5 10 -20 10 -15
0 -24 -4 -20 -10z"/>
<path d="M5310 299 c0 -5 5 -7 10 -4 6 3 10 8 10 11 0 2 -4 4 -10 4 -5 0 -10
-5 -10 -11z"/>
<path d="M480 290 c0 -5 7 -10 15 -10 8 0 15 5 15 10 0 6 -7 10 -15 10 -8 0
-15 -4 -15 -10z"/>
<path d="M2249 293 c-1 -5 -1 -11 0 -15 0 -4 -10 -10 -24 -14 -14 -3 -25 -12
-25 -20 0 -7 -11 -17 -26 -20 -21 -5 -24 -10 -19 -34 4 -19 2 -29 -9 -33 -12
-5 -13 -12 -5 -37 8 -23 8 -34 -1 -45 -11 -13 -8 -15 18 -15 43 0 62 -9 62
-31 0 -10 4 -19 9 -19 16 0 42 31 35 41 -3 6 -1 15 4 22 11 14 10 166 -1 184
-4 6 -3 14 3 18 6 4 8 11 5 16 -7 11 -25 12 -26 2z"/>
<path d="M9017 280 c-5 -21 1 -24 27 -14 13 5 14 9 5 20 -16 19 -26 17 -32 -6z"/>
<path d="M8853 266 c-24 -21 -25 -25 -14 -59 11 -33 16 -37 45 -37 43 0 65 18
70 57 5 35 1 40 -45 53 -24 7 -34 5 -56 -14z"/>
<path d="M12782 274 c-11 -12 -9 -16 14 -24 34 -13 70 -8 39 5 -11 5 -24 14
-30 21 -8 10 -13 10 -23 -2z"/>
<path d="M2625 265 c-23 -10 -25 -14 -10 -14 21 -1 52 15 45 23 -3 2 -18 -2
-35 -9z"/>
<path d="M2148 263 c7 -3 16 -2 19 1 4 3 -2 6 -13 5 -11 0 -14 -3 -6 -6z"/>
<path d="M8345 260 c3 -5 8 -10 11 -10 2 0 4 5 4 10 0 6 -5 10 -11 10 -5 0 -7
-4 -4 -10z"/>
<path d="M2080 239 c0 -5 5 -7 10 -4 6 3 10 8 10 11 0 2 -4 4 -10 4 -5 0 -10
-5 -10 -11z"/>
<path d="M6860 224 c0 -22 19 -54 32 -54 9 0 9 3 0 12 -7 7 -12 22 -12 35 0
13 -4 23 -10 23 -5 0 -10 -7 -10 -16z"/>
<path d="M9915 220 c-10 -17 5 -30 33 -30 43 0 57 15 27 28 -32 15 -52 15 -60
2z"/>
<path d="M9178 153 c6 -2 18 -2 25 0 6 3 1 5 -13 5 -14 0 -19 -2 -12 -5z"/>
<path d="M6940 110 c20 -13 33 -13 25 0 -3 6 -14 10 -23 10 -15 0 -15 -2 -2
-10z"/>
<path d="M3080 90 c0 -5 7 -10 16 -10 8 0 12 5 9 10 -3 6 -10 10 -16 10 -5 0
-9 -4 -9 -10z"/>
<path d="M3305 50 c-3 -5 1 -10 9 -10 9 0 16 5 16 10 0 6 -4 10 -9 10 -6 0
-13 -4 -16 -10z"/>
<path d="M7117 49 c7 -7 15 -10 18 -7 3 3 -2 9 -12 12 -14 6 -15 5 -6 -5z"/>
<path d="M12108 43 c7 -3 16 -2 19 1 4 3 -2 6 -13 5 -11 0 -14 -3 -6 -6z"/>
</g>
</svg>
